<svg width="1010" height="701" viewBox="0 0 1010 701" fill="none" xmlns="http://www.w3.org/2000/svg">
<path opacity="0.5" d="M686.33 347C686.25 345.79 685.82 342.92 683.53 340.63C680.5 337.62 515.21 172.38 515.21 172.38C515.21 172.38 512.99 169.87 508.9 169.6C508.75 169.59 508.61 169.56 508.46 169.56L375.94 342.37L378.09 340.22L402.76 315.55L447.9 270.41L447.92 270.39L450.21 268.1L454.83 263.48L503.07 215.25C503.07 215.25 505.18 213 508.46 213.09C511.75 213.23 513.59 215.15 513.59 215.15L516.33 217.25L686.35 347.59C686.35 347.59 686.36 347.36 686.33 347Z" fill="#94D6F4" stroke="#2192D0" stroke-width="0.75" stroke-miterlimit="10"/>
<path d="M512.01 294.23C548.66 311.6 580.06 311.01 603.54 305.11L603.49 305.06C580.03 310.97 548.64 311.56 512.01 294.23Z" fill="#F1F2F2" stroke="#989898" stroke-width="0.25" stroke-miterlimit="10"/>
<path d="M561.93 321.04L521.84 471.76L521.86 471.74L561.93 321.04Z" stroke="#989898" stroke-width="0.25" stroke-miterlimit="10"/>
<path d="M519.43 276.74C490.46 266.15 471.47 264.1 456.5 263.65C455.78 263.63 455.04 263.62 454.31 263.61L449.69 268.23C450.22 268.27 450.73 268.29 451.27 268.33C468.38 269.65 492.11 273.98 519.24 285.97C543.26 296.62 569 294.9 588.9 290.46L573.51 275.07C561.06 280.18 540.72 284.55 519.43 276.74Z" stroke="#989898" stroke-width="0.25" stroke-miterlimit="10"/>
<path d="M519.24 285.99C492.11 273.99 468.38 269.66 451.27 268.34C450.73 268.3 450.22 268.27 449.69 268.24L447.4 270.53C459.98 272.6 474.66 276.89 491.73 284.46C496.54 286.59 501.55 288.98 506.74 291.65C508.51 292.56 510.26 293.42 512.01 294.24C548.64 311.57 580.03 310.98 603.49 305.07L588.9 290.48C569 294.91 543.26 296.62 519.24 285.99Z" fill="#F1F2F2" stroke="#989898" stroke-width="0.25" stroke-miterlimit="10"/>
<path d="M588.9 290.47C569.01 294.91 543.26 296.62 519.24 285.98C492.11 274 468.38 269.66 451.27 268.34C468.38 269.66 492.11 273.99 519.24 285.99C543.26 296.62 569 294.91 588.9 290.47Z" fill="#F1F2F2" stroke="#989898" stroke-width="0.25" stroke-miterlimit="10"/>
<path d="M561.98 389.16L526.39 467.2L561.98 431.63V389.16Z" stroke="#989898" stroke-width="0.25" stroke-miterlimit="10"/>
<path d="M526.39 467.2L562.01 389.06V321.03C561.98 321.03 561.97 321.03 561.97 321.03C561.96 321.04 561.94 321.04 561.93 321.04L521.85 471.74L526.39 467.2Z" fill="#F1F2F2" stroke="#989898" stroke-width="0.25" stroke-miterlimit="10"/>
<path opacity="0.58" d="M512.01 294.23C510.24 293.39 508.46 292.52 506.66 291.6C501.49 288.94 496.52 286.57 491.73 284.44C474.65 276.88 459.95 272.6 447.38 270.54L402.24 315.68C420.95 308.08 467.5 294.33 518.51 318.48L518.36 475.23L521.84 471.75L561.93 321.04H561.94L561.98 320.89C561.99 320.89 561.99 320.89 562.02 320.89V321.02C565.22 320.62 568.34 320.15 571.39 319.6C585.02 317.08 596.9 312.98 605.41 309.48C606.02 309.23 606.61 308.99 607.18 308.74L603.54 305.1C580.06 311.02 548.66 311.6 512.01 294.23Z" fill="#1E94D2"/>
<path d="M512.01 294.23C510.27 293.4 508.51 292.55 506.74 291.64C501.54 288.97 496.54 286.58 491.73 284.45C496.52 286.57 501.49 288.95 506.66 291.61C508.46 292.53 510.24 293.39 512.01 294.23Z" stroke="#989898" stroke-width="0.25" stroke-miterlimit="10"/>
<path d="M502.02 172.28C499.04 175.29 333.75 340.59 333.75 340.59C333.75 340.59 331.05 342.97 330.97 347.36L331.03 347.41C331.03 347.4 331.03 347.36 331.03 347.36L503.56 479.64L376.66 352.73C376.66 352.73 374.41 350.67 374.52 347.34C374.6 344.06 376.56 342.23 376.56 342.23L378.09 340.24L375.94 342.39L508.46 169.58C508.62 169.58 508.75 169.61 508.9 169.62L509.02 169.47C509.02 169.45 504.99 169.27 502.02 172.28Z" fill="#F8F8F9" stroke="#989898" stroke-width="0.5" stroke-miterlimit="10"/>
<path d="M562.5 431.5L526.92 467.07L522.38 471.61L522.36 471.63L518.88 475.11L514.27 479.71C514.27 479.71 512.18 481.99 508.9 481.87C505.63 481.77 503.78 479.81 503.78 479.81L503.57 479.65L331.04 347.36C331.04 347.36 331.04 347.4 331.04 347.41C331.03 347.65 330.94 351.46 333.84 354.34C336.86 357.31 502.14 522.61 502.14 522.61C502.14 522.61 504.5 525.32 508.9 525.41L509.17 525.06C508.78 525.08 508.54 525.07 508.54 525.07L560.71 457.03L562.49 454.71L638.81 355.18L562.5 431.5Z" stroke="#989898" stroke-width="0.25" stroke-miterlimit="10"/>
<path d="M562.54 320.76C562.51 320.76 562.5 320.76 562.5 320.76L562.46 320.91C562.47 320.91 562.49 320.91 562.5 320.9C562.5 320.9 562.51 320.9 562.54 320.9V320.76Z" fill="#3C4981"/>
<path opacity="0.5" d="M686.33 347C686.35 347.36 686.35 347.59 686.35 347.59L516.33 217.25L574.02 274.94L589.41 290.33L604 304.92L604.05 304.97L607.69 308.61L640.87 341.79C640.87 341.79 643.16 343.9 643.04 347.2C642.93 350.47 641 352.33 641 352.33L638.81 355.19L562.49 454.72L560.71 457.04L508.54 525.08C508.54 525.08 508.78 525.09 509.17 525.07C510.4 525 513.25 524.57 515.52 522.25C518.51 519.25 683.78 353.97 683.78 353.97C683.78 353.97 686.49 351.59 686.56 347.18L686.33 347Z" fill="#2192D0" stroke="#045594" stroke-width="0.75" stroke-miterlimit="10"/>
<path d="M330.9 347.93L417.7 393.77" stroke="#231F20" stroke-width="0.05" stroke-miterlimit="10"/>
<path d="M375.99 342.02L375.56 298.8" stroke="#231F20" stroke-width="0.05" stroke-miterlimit="10"/>
<path d="M507.7 169.72L330.9 347.93" stroke="#231F20" stroke-width="0.05" stroke-miterlimit="10"/>
<path d="M403.76 314.52L473.77 277.73" stroke="#231F20" stroke-width="0.05" stroke-miterlimit="10"/>
<path d="M518.61 317.92L565.75 308.69" stroke="#231F20" stroke-width="0.05" stroke-miterlimit="10"/>
<path d="M562.38 321L518.34 418.73" stroke="#231F20" stroke-width="0.05" stroke-miterlimit="10"/>
<path d="M518.61 317.92L549.78 365.9" stroke="#231F20" stroke-width="0.05" stroke-miterlimit="10"/>
<path d="M562.38 321L518.5 350.34" stroke="#231F20" stroke-width="0.05" stroke-miterlimit="10"/>
<path d="M518.36 218.82L569.72 226.84" stroke="#231F20" stroke-width="0.05" stroke-miterlimit="10"/>
<path d="M565.75 308.69L423.17 295.19" stroke="#231F20" stroke-width="0.05" stroke-miterlimit="10"/>
<path d="M518.61 317.92L448 271.25" stroke="#231F20" stroke-width="0.05" stroke-miterlimit="10"/>
<path d="M638.19 356.09L686.62 347.14" stroke="#231F20" stroke-width="0.05" stroke-miterlimit="10"/>
<path d="M508.7 525.13L664.85 332.02" stroke="#231F20" stroke-width="0.05" stroke-miterlimit="10"/>
<path d="M686.62 347.14L564.29 452.36" stroke="#231F20" stroke-width="0.05" stroke-miterlimit="10"/>
<path d="M665.66 331.21L637.95 356.09" stroke="#231F20" stroke-width="0.05" stroke-miterlimit="10"/>
<path d="M518.36 218.82L679.01 359.71" stroke="#231F20" stroke-width="0.05" stroke-miterlimit="10"/>
<path d="M686.62 347.14L588.96 290.03" stroke="#231F20" stroke-width="0.05" stroke-miterlimit="10"/>
<path d="M518.36 218.82L507.7 169.72" stroke="#231F20" stroke-width="0.05" stroke-miterlimit="10"/>
<path d="M507.7 169.72L621.42 297.83L568.42 225.54" stroke="#231F20" stroke-width="0.05" stroke-miterlimit="10"/>
<path d="M518.36 218.82L489.66 184.22" stroke="#231F20" stroke-width="0.05" stroke-miterlimit="10"/>
<path d="M403.76 314.52L517.53 174.33" stroke="#231F20" stroke-width="0.05" stroke-miterlimit="10"/>
<path d="M448 271.25L493.38 189.24" stroke="#231F20" stroke-width="0.05" stroke-miterlimit="10"/>
<path d="M375.99 342.02L398.25 276.43" stroke="#231F20" stroke-width="0.05" stroke-miterlimit="10"/>
<path d="M330.9 347.93L414.64 291.91" stroke="#231F20" stroke-width="0.05" stroke-miterlimit="10"/>
<path d="M501.97 478.7L508.7 525.13" stroke="#231F20" stroke-width="0.05" stroke-miterlimit="10"/>
<path d="M330.9 347.93L508.7 525.13" stroke="#231F20" stroke-width="0.05" stroke-miterlimit="10"/>
<path d="M501.97 478.7L375.88 396.04" stroke="#231F20" stroke-width="0.05" stroke-miterlimit="10"/>
<path d="M515.42 478.62L564.29 452.36" stroke="#231F20" stroke-width="0.05" stroke-miterlimit="10"/>
<path d="M564.29 452.36L590.14 403.17" stroke="#231F20" stroke-width="0.05" stroke-miterlimit="10"/>
<path d="M599.54 406.09L488.68 509.82" stroke="#231F20" stroke-width="0.05" stroke-miterlimit="10"/>
<path d="M451.89 473.21L531.79 493.93" stroke="#231F20" stroke-width="0.05" stroke-miterlimit="10"/>
<path d="M330.9 347.93L375.56 351.63" stroke="#231F20" stroke-width="0.05" stroke-miterlimit="10"/>
<path d="M375.99 342.02L330.9 347.93" stroke="#231F20" stroke-width="0.05" stroke-miterlimit="10"/>
<path d="M385.93 362.01L330.9 347.93" stroke="#231F20" stroke-width="0.05" stroke-miterlimit="10"/>
<path d="M686.62 347.14L640.99 341.63" stroke="#231F20" stroke-width="0.05" stroke-miterlimit="10"/>
<path d="M643.18 348.8L686.62 347.14" stroke="#231F20" stroke-width="0.05" stroke-miterlimit="10"/>
<path d="M622.27 371.77L686.62 347.14" stroke="#231F20" stroke-width="0.05" stroke-miterlimit="10"/>
<path d="M620.61 320.84L686.62 347.14" stroke="#231F20" stroke-width="0.05" stroke-miterlimit="10"/>
<path d="M638.76 295.56L686.62 347.14" stroke="#231F20" stroke-width="0.05" stroke-miterlimit="10"/>
<path d="M507.7 169.72L508.78 213.23" stroke="#231F20" stroke-width="0.05" stroke-miterlimit="10"/>
<path d="M518.36 218.82L507.7 169.72" stroke="#231F20" stroke-width="0.05" stroke-miterlimit="10"/>
<path d="M493.55 224.81L507.7 169.72" stroke="#231F20" stroke-width="0.05" stroke-miterlimit="10"/>
<path d="M502.05 216.31L507.7 169.72" stroke="#231F20" stroke-width="0.05" stroke-miterlimit="10"/>
<path d="M508.7 525.13L485.44 467.84" stroke="#231F20" stroke-width="0.05" stroke-miterlimit="10"/>
<path d="M515.42 478.62L508.7 525.13" stroke="#231F20" stroke-width="0.05" stroke-miterlimit="10"/>
<path d="M529.69 464.35L508.7 525.13" stroke="#231F20" stroke-width="0.05" stroke-miterlimit="10"/>
<path d="M541.6 452.2L508.7 525.13" stroke="#231F20" stroke-width="0.05" stroke-miterlimit="10"/>
<path d="M518.34 437.05L562.38 321" stroke="#231F20" stroke-width="0.05" stroke-miterlimit="10"/>
<path d="M518.1 369.22L562.38 321" stroke="#231F20" stroke-width="0.05" stroke-miterlimit="10"/>
<path d="M565.75 308.69L562.38 321" stroke="#231F20" stroke-width="0.05" stroke-miterlimit="10"/>
<path d="M518.34 326.43L562.38 321" stroke="#231F20" stroke-width="0.05" stroke-miterlimit="10"/>
<path d="M588.84 290.94L565.75 308.69" stroke="#231F20" stroke-width="0.05" stroke-miterlimit="10"/>
<path d="M518.22 285.83L565.75 308.69" stroke="#231F20" stroke-width="0.05" stroke-miterlimit="10"/>
<path d="M557.97 294.34L565.75 308.69" stroke="#231F20" stroke-width="0.05" stroke-miterlimit="10"/>
<path d="M455.13 263.71L481.39 273.19" stroke="#231F20" stroke-width="0.05" stroke-miterlimit="10"/>
<path d="M572.8 275.38L530.42 289.72" stroke="#231F20" stroke-width="0.05" stroke-miterlimit="10"/>
<path d="M496.95 269.55L530.42 289.72" stroke="#231F20" stroke-width="0.05" stroke-miterlimit="10"/>
<path d="M583.74 284.62L530.42 289.72" stroke="#231F20" stroke-width="0.05" stroke-miterlimit="10"/>
<path d="M455.13 263.71L572.07 293.13" stroke="#231F20" stroke-width="0.05" stroke-miterlimit="10"/>
<path d="M450.52 268.33L487.95 267.6" stroke="#231F20" stroke-width="0.05" stroke-miterlimit="10"/>
<path d="M491.36 276.11L505.7 290.94" stroke="#231F20" stroke-width="0.05" stroke-miterlimit="10"/>
<path d="M485.04 281.46L518.22 285.83" stroke="#231F20" stroke-width="0.05" stroke-miterlimit="10"/>
<path d="M557.97 294.1L603.92 305.04" stroke="#231F20" stroke-width="0.05" stroke-miterlimit="10"/>
<path d="M436.42 281.7L495 302.12" stroke="#231F20" stroke-width="0.05" stroke-miterlimit="10"/>
<path d="M451.89 473.21L385.36 361.68" stroke="#231F20" stroke-width="0.05" stroke-miterlimit="10"/>
<path d="M417.21 393.29L451.89 473.21" stroke="#231F20" stroke-width="0.05" stroke-miterlimit="10"/>
<path d="M375.64 351.47L376.13 396.2" stroke="#231F20" stroke-width="0.05" stroke-miterlimit="10"/>
<path d="M331.15 347.58L458.86 233.65" stroke="#231F20" stroke-width="0.05" stroke-miterlimit="10"/>
<path d="M398.73 275.62L441.76 249.13" stroke="#231F20" stroke-width="0.05" stroke-miterlimit="10"/>
<path d="M468.75 205.73L441.64 249" stroke="#231F20" stroke-width="0.05" stroke-miterlimit="10"/>
<path d="M621.26 298.9C621.834 298.9 622.3 298.434 622.3 297.86C622.3 297.285 621.834 296.82 621.26 296.82C620.686 296.82 620.22 297.285 620.22 297.86C620.22 298.434 620.686 298.9 621.26 298.9Z" fill="#231F20"/>
<path d="M622.21 310.27C622.784 310.27 623.25 309.804 623.25 309.23C623.25 308.655 622.784 308.19 622.21 308.19C621.636 308.19 621.17 308.655 621.17 309.23C621.17 309.804 621.636 310.27 622.21 310.27Z" fill="#231F20"/>
<path d="M550.27 367.26C550.844 367.26 551.31 366.794 551.31 366.22C551.31 365.645 550.844 365.18 550.27 365.18C549.696 365.18 549.23 365.645 549.23 366.22C549.23 366.794 549.696 367.26 550.27 367.26Z" fill="#231F20"/>
<path d="M518.49 351.38C519.064 351.38 519.53 350.914 519.53 350.34C519.53 349.765 519.064 349.3 518.49 349.3C517.916 349.3 517.45 349.765 517.45 350.34C517.45 350.914 517.916 351.38 518.49 351.38Z" fill="#231F20"/>
<path d="M518.27 370.07C518.844 370.07 519.31 369.604 519.31 369.03C519.31 368.455 518.844 367.99 518.27 367.99C517.696 367.99 517.23 368.455 517.23 369.03C517.23 369.604 517.696 370.07 518.27 370.07Z" fill="#231F20"/>
<path d="M508.74 526.09C509.314 526.09 509.78 525.624 509.78 525.05C509.78 524.475 509.314 524.01 508.74 524.01C508.166 524.01 507.7 524.475 507.7 525.05C507.7 525.624 508.166 526.09 508.74 526.09Z" fill="#231F20"/>
<path d="M515.42 479.58C515.994 479.58 516.46 479.114 516.46 478.54C516.46 477.965 515.994 477.5 515.42 477.5C514.845 477.5 514.38 477.965 514.38 478.54C514.38 479.114 514.845 479.58 515.42 479.58Z" fill="#231F20"/>
<path d="M485.6 469.2C486.174 469.2 486.64 468.734 486.64 468.16C486.64 467.585 486.174 467.12 485.6 467.12C485.026 467.12 484.56 467.585 484.56 468.16C484.56 468.734 485.026 469.2 485.6 469.2Z" fill="#231F20"/>
<path d="M501.81 479.25C502.384 479.25 502.85 478.784 502.85 478.21C502.85 477.635 502.384 477.17 501.81 477.17C501.236 477.17 500.77 477.635 500.77 478.21C500.77 478.784 501.236 479.25 501.81 479.25Z" fill="#231F20"/>
<path d="M589.65 404.86C590.224 404.86 590.69 404.394 590.69 403.82C590.69 403.245 590.224 402.78 589.65 402.78C589.076 402.78 588.61 403.245 588.61 403.82C588.61 404.394 589.076 404.86 589.65 404.86Z" fill="#231F20"/>
<path d="M565.02 452.67C565.594 452.67 566.06 452.204 566.06 451.63C566.06 451.055 565.594 450.59 565.02 450.59C564.446 450.59 563.98 451.055 563.98 451.63C563.98 452.204 564.446 452.67 565.02 452.67Z" fill="#231F20"/>
<path d="M678.79 360.29C679.364 360.29 679.83 359.824 679.83 359.25C679.83 358.675 679.364 358.21 678.79 358.21C678.216 358.21 677.75 358.675 677.75 359.25C677.75 359.824 678.216 360.29 678.79 360.29Z" fill="#231F20"/>
<path d="M518.57 319.09C519.144 319.09 519.61 318.624 519.61 318.05C519.61 317.475 519.144 317.01 518.57 317.01C517.996 317.01 517.53 317.475 517.53 318.05C517.53 318.624 517.996 319.09 518.57 319.09Z" fill="#231F20"/>
<path d="M494.25 302.95C494.824 302.95 495.29 302.484 495.29 301.91C495.29 301.335 494.824 300.87 494.25 300.87C493.676 300.87 493.21 301.335 493.21 301.91C493.21 302.484 493.676 302.95 494.25 302.95Z" fill="#231F20"/>
<path d="M491.54 277.17C492.114 277.17 492.58 276.704 492.58 276.13C492.58 275.555 492.114 275.09 491.54 275.09C490.966 275.09 490.5 275.555 490.5 276.13C490.5 276.704 490.966 277.17 491.54 277.17Z" fill="#231F20"/>
<path d="M455.32 265.05C455.894 265.05 456.36 264.584 456.36 264.01C456.36 263.435 455.894 262.97 455.32 262.97C454.746 262.97 454.28 263.435 454.28 264.01C454.28 264.584 454.746 265.05 455.32 265.05Z" fill="#231F20"/>
<path d="M450.79 269.43C451.364 269.43 451.83 268.964 451.83 268.39C451.83 267.815 451.364 267.35 450.79 267.35C450.216 267.35 449.75 267.815 449.75 268.39C449.75 268.964 450.216 269.43 450.79 269.43Z" fill="#231F20"/>
<path d="M448.09 272.21C448.664 272.21 449.13 271.744 449.13 271.17C449.13 270.596 448.664 270.13 448.09 270.13C447.516 270.13 447.05 270.596 447.05 271.17C447.05 271.744 447.516 272.21 448.09 272.21Z" fill="#231F20"/>
<path d="M376.15 343.05C376.724 343.05 377.19 342.584 377.19 342.01C377.19 341.435 376.724 340.97 376.15 340.97C375.575 340.97 375.11 341.435 375.11 342.01C375.11 342.584 375.575 343.05 376.15 343.05Z" fill="#231F20"/>
<path d="M403.91 315.44C404.485 315.44 404.95 314.974 404.95 314.4C404.95 313.825 404.485 313.36 403.91 313.36C403.336 313.36 402.87 313.825 402.87 314.4C402.87 314.974 403.336 315.44 403.91 315.44Z" fill="#231F20"/>
<path d="M331.09 348.97C331.664 348.97 332.13 348.504 332.13 347.93C332.13 347.355 331.664 346.89 331.09 346.89C330.516 346.89 330.05 347.355 330.05 347.93C330.05 348.504 330.516 348.97 331.09 348.97Z" fill="#231F20"/>
<path d="M375.52 352.67C376.094 352.67 376.56 352.204 376.56 351.63C376.56 351.055 376.094 350.59 375.52 350.59C374.946 350.59 374.48 351.055 374.48 351.63C374.48 352.204 374.946 352.67 375.52 352.67Z" fill="#231F20"/>
<path d="M385.67 362.91C386.244 362.91 386.71 362.444 386.71 361.87C386.71 361.295 386.244 360.83 385.67 360.83C385.096 360.83 384.63 361.295 384.63 361.87C384.63 362.444 385.096 362.91 385.67 362.91Z" fill="#231F20"/>
<path d="M375.96 397.2C376.534 397.2 377 396.734 377 396.16C377 395.585 376.534 395.12 375.96 395.12C375.386 395.12 374.92 395.585 374.92 396.16C374.92 396.734 375.386 397.2 375.96 397.2Z" fill="#231F20"/>
<path d="M451.49 474.19C452.064 474.19 452.53 473.724 452.53 473.15C452.53 472.575 452.064 472.11 451.49 472.11C450.916 472.11 450.45 472.575 450.45 473.15C450.45 473.724 450.916 474.19 451.49 474.19Z" fill="#231F20"/>
<path d="M561.98 322.37C562.554 322.37 563.02 321.904 563.02 321.33C563.02 320.755 562.554 320.29 561.98 320.29C561.406 320.29 560.94 320.755 560.94 321.33C560.94 321.904 561.406 322.37 561.98 322.37Z" fill="#231F20"/>
<path d="M665.24 332.46C665.814 332.46 666.28 331.994 666.28 331.42C666.28 330.846 665.814 330.38 665.24 330.38C664.666 330.38 664.2 330.846 664.2 331.42C664.2 331.994 664.666 332.46 665.24 332.46Z" fill="#231F20"/>
<path d="M620.45 322.04C621.024 322.04 621.49 321.574 621.49 321C621.49 320.425 621.024 319.96 620.45 319.96C619.876 319.96 619.41 320.425 619.41 321C619.41 321.574 619.876 322.04 620.45 322.04Z" fill="#231F20"/>
<path d="M565.5 309.89C566.074 309.89 566.54 309.424 566.54 308.85C566.54 308.275 566.074 307.81 565.5 307.81C564.926 307.81 564.46 308.275 564.46 308.85C564.46 309.424 564.926 309.89 565.5 309.89Z" fill="#231F20"/>
<path d="M557.73 295.14C558.304 295.14 558.77 294.674 558.77 294.1C558.77 293.525 558.304 293.06 557.73 293.06C557.156 293.06 556.69 293.525 556.69 294.1C556.69 294.674 557.156 295.14 557.73 295.14Z" fill="#231F20"/>
<path d="M530.98 290.93C531.554 290.93 532.02 290.464 532.02 289.89C532.02 289.315 531.554 288.85 530.98 288.85C530.406 288.85 529.94 289.315 529.94 289.89C529.94 290.464 530.406 290.93 530.98 290.93Z" fill="#231F20"/>
<path d="M517.86 219.61C518.434 219.61 518.9 219.144 518.9 218.57C518.9 217.995 518.434 217.53 517.86 217.53C517.286 217.53 516.82 217.995 516.82 218.57C516.82 219.144 517.286 219.61 517.86 219.61Z" fill="#231F20"/>
<path d="M507.65 170.99C508.224 170.99 508.69 170.524 508.69 169.95C508.69 169.375 508.224 168.91 507.65 168.91C507.075 168.91 506.61 169.375 506.61 169.95C506.61 170.524 507.075 170.99 507.65 170.99Z" fill="#231F20"/>
<path d="M499.7 197.41C500.274 197.41 500.74 196.944 500.74 196.37C500.74 195.795 500.274 195.33 499.7 195.33C499.126 195.33 498.66 195.795 498.66 196.37C498.66 196.944 499.126 197.41 499.7 197.41Z" fill="#231F20"/>
<path d="M489.98 185.74C490.554 185.74 491.02 185.274 491.02 184.7C491.02 184.125 490.554 183.66 489.98 183.66C489.406 183.66 488.94 184.125 488.94 184.7C488.94 185.274 489.406 185.74 489.98 185.74Z" fill="#231F20"/>
<path d="M517.53 175.86C518.104 175.86 518.57 175.394 518.57 174.82C518.57 174.245 518.104 173.78 517.53 173.78C516.956 173.78 516.49 174.245 516.49 174.82C516.49 175.394 516.956 175.86 517.53 175.86Z" fill="#231F20"/>
<path d="M459.19 235.01C459.764 235.01 460.23 234.544 460.23 233.97C460.23 233.395 459.764 232.93 459.19 232.93C458.616 232.93 458.15 233.395 458.15 233.97C458.15 234.544 458.616 235.01 459.19 235.01Z" fill="#231F20"/>
<path d="M375.4 299.84C375.974 299.84 376.44 299.374 376.44 298.8C376.44 298.225 375.974 297.76 375.4 297.76C374.825 297.76 374.36 298.225 374.36 298.8C374.36 299.374 374.825 299.84 375.4 299.84Z" fill="#231F20"/>
<path d="M414.62 293.03C415.194 293.03 415.66 292.564 415.66 291.99C415.66 291.415 415.194 290.95 414.62 290.95C414.046 290.95 413.58 291.415 413.58 291.99C413.58 292.564 414.046 293.03 414.62 293.03Z" fill="#231F20"/>
<path d="M422.88 296.27C423.454 296.27 423.92 295.804 423.92 295.23C423.92 294.655 423.454 294.19 422.88 294.19C422.306 294.19 421.84 294.655 421.84 295.23C421.84 295.804 422.306 296.27 422.88 296.27Z" fill="#231F20"/>
<path d="M464.7 283.63C465.274 283.63 465.74 283.164 465.74 282.59C465.74 282.015 465.274 281.55 464.7 281.55C464.126 281.55 463.66 282.015 463.66 282.59C463.66 283.164 464.126 283.63 464.7 283.63Z" fill="#231F20"/>
<path d="M519.15 287.2C519.724 287.2 520.19 286.734 520.19 286.16C520.19 285.585 519.724 285.12 519.15 285.12C518.576 285.12 518.11 285.585 518.11 286.16C518.11 286.734 518.576 287.2 519.15 287.2Z" fill="#231F20"/>
<path d="M417.37 394.81C417.944 394.81 418.41 394.344 418.41 393.77C418.41 393.195 417.944 392.73 417.37 392.73C416.796 392.73 416.33 393.195 416.33 393.77C416.33 394.344 416.796 394.81 417.37 394.81Z" fill="#231F20"/>
<path d="M489.17 510.69C489.744 510.69 490.21 510.224 490.21 509.65C490.21 509.075 489.744 508.61 489.17 508.61C488.596 508.61 488.13 509.075 488.13 509.65C488.13 510.224 488.596 510.69 489.17 510.69Z" fill="#231F20"/>
<path d="M529.53 465.64C530.104 465.64 530.57 465.174 530.57 464.6C530.57 464.025 530.104 463.56 529.53 463.56C528.956 463.56 528.49 464.025 528.49 464.6C528.49 465.174 528.956 465.64 529.53 465.64Z" fill="#231F20"/>
<path d="M518.5 437.6C519.074 437.6 519.54 437.134 519.54 436.56C519.54 435.985 519.074 435.52 518.5 435.52C517.926 435.52 517.46 435.985 517.46 436.56C517.46 437.134 517.926 437.6 518.5 437.6Z" fill="#231F20"/>
<path d="M561.62 390.6C562.194 390.6 562.66 390.134 562.66 389.56C562.66 388.985 562.194 388.52 561.62 388.52C561.046 388.52 560.58 388.985 560.58 389.56C560.58 390.134 561.046 390.6 561.62 390.6Z" fill="#231F20"/>
<path d="M569.17 227.39C569.744 227.39 570.21 226.924 570.21 226.35C570.21 225.775 569.744 225.31 569.17 225.31C568.595 225.31 568.13 225.775 568.13 226.35C568.13 226.924 568.595 227.39 569.17 227.39Z" fill="#231F20"/>
<path d="M625.13 282.74C625.704 282.74 626.17 282.274 626.17 281.7C626.17 281.125 625.704 280.66 625.13 280.66C624.556 280.66 624.09 281.125 624.09 281.7C624.09 282.274 624.556 282.74 625.13 282.74Z" fill="#231F20"/>
<path d="M597.11 266.7C597.684 266.7 598.15 266.234 598.15 265.66C598.15 265.085 597.684 264.62 597.11 264.62C596.536 264.62 596.07 265.085 596.07 265.66C596.07 266.234 596.536 266.7 597.11 266.7Z" fill="#231F20"/>
<path d="M542.98 286.71C543.554 286.71 544.02 286.244 544.02 285.67C544.02 285.096 543.554 284.63 542.98 284.63C542.406 284.63 541.94 285.096 541.94 285.67C541.94 286.244 542.406 286.71 542.98 286.71Z" fill="#231F20"/>
<path d="M588.78 291.07C589.354 291.07 589.82 290.604 589.82 290.03C589.82 289.455 589.354 288.99 588.78 288.99C588.206 288.99 587.74 289.455 587.74 290.03C587.74 290.604 588.206 291.07 588.78 291.07Z" fill="#231F20"/>
<path d="M686.53 348.15C687.104 348.15 687.57 347.684 687.57 347.11C687.57 346.535 687.104 346.07 686.53 346.07C685.956 346.07 685.49 346.535 685.49 347.11C685.49 347.684 685.956 348.15 686.53 348.15Z" fill="#231F20"/>
<path d="M397.92 277.47C398.494 277.47 398.96 277.004 398.96 276.43C398.96 275.855 398.494 275.39 397.92 275.39C397.346 275.39 396.88 275.855 396.88 276.43C396.88 277.004 397.346 277.47 397.92 277.47Z" fill="#231F20"/>
<path d="M398.17 275.7L441.93 249.37" stroke="#231F20" stroke-width="0.05" stroke-miterlimit="10"/>
<path d="M468.91 205.53L441.93 249.37" stroke="#231F20" stroke-width="0.05" stroke-miterlimit="10"/>
<path d="M468.75 205.98C469.324 205.98 469.79 205.514 469.79 204.94C469.79 204.365 469.324 203.9 468.75 203.9C468.176 203.9 467.71 204.365 467.71 204.94C467.71 205.514 468.176 205.98 468.75 205.98Z" fill="#231F20"/>
<path d="M441.76 250.41C442.334 250.41 442.8 249.944 442.8 249.37C442.8 248.795 442.334 248.33 441.76 248.33C441.186 248.33 440.72 248.795 440.72 249.37C440.72 249.944 441.186 250.41 441.76 250.41Z" fill="#231F20"/>
<path d="M568.99 226.52L653.45 32.0898" stroke="#231F20" stroke-width="0.05" stroke-miterlimit="10"/>
<path d="M588.68 289.72L653.45 32.0898" stroke="#231F20" stroke-width="0.05" stroke-miterlimit="10"/>
<path d="M665.26 331.3L653.45 32.0898" stroke="#231F20" stroke-width="0.05" stroke-miterlimit="10"/>
<path d="M597.68 265.41L653.45 32.0898" stroke="#231F20" stroke-width="0.05" stroke-miterlimit="10"/>
<path d="M517.53 349.85L653.45 32.0898" stroke="#231F20" stroke-width="0.05" stroke-miterlimit="10"/>
<path d="M564.53 451.63L835.4 394.91" stroke="#231F20" stroke-width="0.05" stroke-miterlimit="10"/>
<path d="M687.06 346.29L835.4 394.91" stroke="#231F20" stroke-width="0.05" stroke-miterlimit="10"/>
<path d="M507.81 524.89L835.4 394.91" stroke="#231F20" stroke-width="0.05" stroke-miterlimit="10"/>
<path d="M560.97 389.07L835.4 394.91" stroke="#231F20" stroke-width="0.05" stroke-miterlimit="10"/>
<path d="M375.56 341.1L190.92 497.65" stroke="#231F20" stroke-width="0.05" stroke-miterlimit="10"/>
<path d="M331.15 347.58L190.92 497.65" stroke="#231F20" stroke-width="0.05" stroke-miterlimit="10"/>
<path d="M451.41 472.7L190.92 497.65" stroke="#231F20" stroke-width="0.05" stroke-miterlimit="10"/>
<path d="M518.5 436.4L190.92 497.65" stroke="#231F20" stroke-width="0.05" stroke-miterlimit="10"/>
<path d="M516.88 350.18L190.92 497.65" stroke="#231F20" stroke-width="0.05" stroke-miterlimit="10"/>
<path d="M458.86 233.16L254.01 100.78" stroke="#231F20" stroke-width="0.05" stroke-miterlimit="10"/>
<path d="M489.01 184.22L254.01 100.78" stroke="#231F20" stroke-width="0.05" stroke-miterlimit="10"/>
<path d="M507.48 170.28L254.01 100.78" stroke="#231F20" stroke-width="0.05" stroke-miterlimit="10"/>
<path d="M375.23 299.29L254.01 100.78" stroke="#231F20" stroke-width="0.05" stroke-miterlimit="10"/>
<path d="M397.92 275.62L254.01 100.78" stroke="#231F20" stroke-width="0.05" stroke-miterlimit="10"/>
<path d="M491.28 275.95L254.01 100.78" stroke="#231F20" stroke-width="0.05" stroke-miterlimit="10"/>
<path d="M502.3 479.18L254.01 100.78" stroke="#231F20" stroke-width="0.05" stroke-miterlimit="10"/>
<path d="M518.18 217.93L190.92 497.65" stroke="#231F20" stroke-width="0.05" stroke-miterlimit="10"/>
<path d="M542.81 284.7L190.92 497.65" stroke="#231F20" stroke-width="0.05" stroke-miterlimit="10"/>
<path d="M515.59 477.89L653.45 32.0898" stroke="#231F20" stroke-width="0.05" stroke-miterlimit="10"/>
<path d="M402.95 314.03L835.4 394.91" stroke="#231F20" stroke-width="0.05" stroke-miterlimit="10"/>
<path d="M561.45 321.33L835.4 394.91" stroke="#231F20" stroke-width="0.05" stroke-miterlimit="10"/>
<path d="M518.18 174.17L588.58 651.47" stroke="#231F20" stroke-width="0.05" stroke-miterlimit="10"/>
<path d="M451.41 471.73L588.58 651.47" stroke="#231F20" stroke-width="0.05" stroke-miterlimit="10"/>
<path d="M519.48 435.43L588.58 651.47" stroke="#231F20" stroke-width="0.05" stroke-miterlimit="10"/>
<path d="M508.46 525.54L588.58 651.47" stroke="#231F20" stroke-width="0.05" stroke-miterlimit="10"/>
<path d="M494.84 301.23L588.58 651.47" stroke="#231F20" stroke-width="0.05" stroke-miterlimit="10"/>
<path d="M529.85 290.21L588.58 651.47" stroke="#231F20" stroke-width="0.05" stroke-miterlimit="10"/>
<path d="M623.85 309.66L588.58 651.47" stroke="#231F20" stroke-width="0.05" stroke-miterlimit="10"/>
<path d="M678.31 358.93L588.58 651.47" stroke="#231F20" stroke-width="0.05" stroke-miterlimit="10"/>
<path d="M506.84 525.36L190.92 497.65" stroke="#231F20" stroke-width="0.05" stroke-miterlimit="10"/>
<path d="M330.06 346.9L588.58 651.47" stroke="#231F20" stroke-width="0.05" stroke-miterlimit="10"/>
<path d="M376.14 395.5L588.58 651.47" stroke="#231F20" stroke-width="0.05" stroke-miterlimit="10"/>
<path d="M403.79 314.23L588.58 651.47" stroke="#231F20" stroke-width="0.05" stroke-miterlimit="10"/>
<path d="M331.74 346.9L254.01 100.78" stroke="#231F20" stroke-width="0.05" stroke-miterlimit="10"/>
<path d="M517.66 174.7L653.45 32.0898" stroke="#231F20" stroke-width="0.05" stroke-miterlimit="10"/>
<path d="M686.14 347.74L653.45 32.0898" stroke="#231F20" stroke-width="0.05" stroke-miterlimit="10"/>
<path d="M507.8 170.11L653.45 32.0898" stroke="#231F20" stroke-width="0.05" stroke-miterlimit="10"/>
<path d="M516.9 217.88L653.45 32.0898" stroke="#231F20" stroke-width="0.05" stroke-miterlimit="10"/>
<path d="M514.38 479.28L835.4 394.91" stroke="#231F20" stroke-width="0.05" stroke-miterlimit="10"/>
<path d="M520.25 435.71L835.4 394.91" stroke="#231F20" stroke-width="0.05" stroke-miterlimit="10"/>
<path d="M322.12 323.56L190.92 497.65" stroke="#231F20" stroke-width="0.05" stroke-miterlimit="10"/>
<path d="M501.11 479.46L190.92 497.65" stroke="#231F20" stroke-width="0.05" stroke-miterlimit="10"/>
<path d="M506.93 169.5L835.4 394.91" stroke="#231F20" stroke-width="0.05" stroke-miterlimit="10"/>
<path d="M623.22 280.73L835.4 394.91" stroke="#231F20" stroke-width="0.05" stroke-miterlimit="10"/>
<path d="M569.63 225.12L835.4 394.91" stroke="#231F20" stroke-width="0.05" stroke-miterlimit="10"/>
<path d="M475.29 161.58L653.45 32.0898" stroke="#231F20" stroke-width="0.05" stroke-miterlimit="10"/>
<path d="M254.01 100.78L518.33 436.43" stroke="#231F20" stroke-width="0.05" stroke-miterlimit="10"/>
<path d="M653.45 32.0898L623.96 280.72" stroke="#231F20" stroke-width="0.05" stroke-miterlimit="10"/>
<path d="M330.17 347.57L254.01 100.78" stroke="#231F20" stroke-width="0.05" stroke-miterlimit="10"/>
<path d="M375.91 341.91L254.01 100.78" stroke="#231F20" stroke-width="0.05" stroke-miterlimit="10"/>
<path d="M468.61 204.46L254.01 100.78" stroke="#231F20" stroke-width="0.05" stroke-miterlimit="10"/>
<path d="M689.888 32.17L689.969 32.265L690.013 32.2276V32.17H689.888ZM689.888 24.7906H690.013V24.6656H689.888V24.7906ZM682.408 24.7906V24.6656H682.283V24.7906H682.408ZM682.408 27.4763H682.283V27.6013H682.408V27.4763ZM686.901 27.4763H687.026V27.3513H686.901V27.4763ZM686.901 30.7644L686.975 30.8647L687.026 30.8272V30.7644H686.901ZM687.302 21.4523L687.221 21.5475L687.317 21.6292L687.398 21.5327L687.302 21.4523ZM689.26 19.118L689.356 19.1984L689.436 19.1031L689.341 19.0227L689.26 19.118ZM682.559 35.0309C685.706 35.0309 688.219 33.7614 689.969 32.265L689.806 32.075C688.093 33.5405 685.636 34.7809 682.559 34.7809V35.0309ZM690.013 32.17V24.7906H689.763V32.17H690.013ZM689.888 24.6656H682.408V24.9156H689.888V24.6656ZM682.283 24.7906V27.4763H682.533V24.7906H682.283ZM682.408 27.6013H686.901V27.3513H682.408V27.6013ZM686.776 27.4763V30.7644H687.026V27.4763H686.776ZM686.826 30.6642C685.769 31.4505 684.29 31.9697 682.659 31.9697V32.2197C684.341 32.2197 685.874 31.6847 686.975 30.8647L686.826 30.6642ZM682.659 31.9697C680.897 31.9697 679.437 31.3174 678.417 30.2272C677.397 29.1363 676.81 27.5994 676.81 25.8197H676.56C676.56 27.6545 677.166 29.2551 678.235 30.398C679.305 31.5418 680.832 32.2197 682.659 32.2197V31.9697ZM676.81 25.8197V25.7695H676.56V25.8197H676.81ZM676.81 25.7695C676.81 22.4628 679.226 19.6948 682.383 19.6948V19.4448C679.064 19.4448 676.56 22.3494 676.56 25.7695H676.81ZM682.383 19.6948C684.58 19.6948 685.882 20.4069 687.221 21.5475L687.383 21.3572C686.012 20.1885 684.654 19.4448 682.383 19.4448V19.6948ZM687.398 21.5327L689.356 19.1984L689.164 19.0377L687.207 21.372L687.398 21.5327ZM689.341 19.0227C687.512 17.4733 685.601 16.6085 682.508 16.6085V16.8585C685.54 16.8585 687.394 17.7006 689.179 19.2134L689.341 19.0227ZM682.508 16.6085C677.139 16.6085 673.322 20.835 673.322 25.8197H673.572C673.572 20.9653 677.285 16.8585 682.508 16.8585V16.6085ZM673.322 25.8197V25.8699H673.572V25.8197H673.322ZM673.322 25.8699C673.322 28.46 674.237 30.7514 675.852 32.3957C677.468 34.0404 679.779 35.0309 682.559 35.0309V34.7809C679.841 34.7809 677.596 33.8136 676.031 32.2205C674.465 30.6269 673.572 28.4003 673.572 25.8699H673.322ZM693.908 34.6047H693.783V34.7297H693.908V34.6047ZM696.996 34.6047V34.7297H697.121V34.6047H696.996ZM696.996 28.4803V28.3553H696.871V28.4803H696.996ZM700.861 28.4803L700.963 28.4083L700.926 28.3553H700.861V28.4803ZM705.178 34.6047L705.076 34.6768L705.113 34.7297H705.178V34.6047ZM708.843 34.6047V34.7297H709.085L708.944 34.5322L708.843 34.6047ZM704.099 27.9532L704.064 27.8331L703.895 27.8821L703.997 28.0258L704.099 27.9532ZM706.81 18.7917L706.899 18.7045L706.897 18.7024L706.81 18.7917ZM693.908 17.0347V16.9097H693.783V17.0347H693.908ZM696.996 25.7444H696.871V25.8694H696.996V25.7444ZM696.996 19.8459V19.7209H696.871V19.8459H696.996ZM693.908 34.7297H696.996V34.4797H693.908V34.7297ZM697.121 34.6047V28.4803H696.871V34.6047H697.121ZM696.996 28.6053H700.861V28.3553H696.996V28.6053ZM700.759 28.5524L705.076 34.6768L705.28 34.5327L700.963 28.4083L700.759 28.5524ZM705.178 34.7297H708.843V34.4797H705.178V34.7297ZM708.944 34.5322L704.201 27.8807L703.997 28.0258L708.741 34.6773L708.944 34.5322ZM704.133 28.0733C705.369 27.7167 706.434 27.0965 707.191 26.1917C707.949 25.2856 708.39 24.1019 708.39 22.632H708.14C708.14 24.0487 707.716 25.1742 706.999 26.0313C706.281 26.8898 705.263 27.487 704.064 27.8331L704.133 28.0733ZM708.39 22.632V22.5818H708.14V22.632H708.39ZM708.39 22.5818C708.39 21.0209 707.852 19.6836 706.899 18.7045L706.72 18.8789C707.624 19.8075 708.14 21.0806 708.14 22.5818H708.39ZM706.897 18.7024C705.738 17.5696 703.972 16.9097 701.739 16.9097V17.1597C703.924 17.1597 705.622 17.8051 706.722 18.8811L706.897 18.7024ZM701.739 16.9097H693.908V17.1597H701.739V16.9097ZM693.783 17.0347V34.6047H694.033V17.0347H693.783ZM697.121 25.7444V19.8459H696.871V25.7444H697.121ZM696.996 19.9709H701.488V19.7209H696.996V19.9709ZM701.488 19.9709C702.614 19.9709 703.493 20.2248 704.087 20.6939C704.678 21.1597 705.003 21.8492 705.003 22.7575H705.253C705.253 21.7834 704.901 21.0171 704.242 20.4977C703.588 19.9817 702.647 19.7209 701.488 19.7209V19.9709ZM705.003 22.7575V22.8077H705.253V22.7575H705.003ZM705.003 22.8077C705.003 23.663 704.667 24.3609 704.07 24.8475C703.47 25.3362 702.597 25.6194 701.514 25.6194V25.8694C702.639 25.8694 703.573 25.5754 704.228 25.0413C704.886 24.505 705.253 23.7346 705.253 22.8077H705.003ZM701.514 25.6194H696.996V25.8694H701.514V25.6194ZM720.43 35.0309C725.898 35.0309 729.767 30.8317 729.767 25.8197H729.517C729.517 30.6972 725.756 34.7809 720.43 34.7809V35.0309ZM729.767 25.8197V25.7695H729.517V25.8197H729.767ZM729.767 25.7695C729.767 20.7576 725.948 16.6085 720.48 16.6085V16.8585C725.806 16.8585 729.517 20.892 729.517 25.7695H729.767ZM720.48 16.6085C715.013 16.6085 711.144 20.8078 711.144 25.8197H711.394C711.394 20.9423 715.155 16.8585 720.48 16.8585V16.6085ZM711.144 25.8197V25.8699H711.394V25.8197H711.144ZM711.144 25.8699C711.144 30.8818 714.963 35.0309 720.43 35.0309V34.7809C715.105 34.7809 711.394 30.7474 711.394 25.8699H711.144ZM720.48 31.9195C717.068 31.9195 714.632 29.1722 714.632 25.8197H714.382C714.382 29.2945 716.915 32.1695 720.48 32.1695V31.9195ZM714.632 25.8197V25.7695H714.382V25.8197H714.632ZM714.632 25.7695C714.632 22.4163 717.019 19.6948 720.43 19.6948V19.4448C716.864 19.4448 714.382 22.2956 714.382 25.7695H714.632ZM720.43 19.6948C723.842 19.6948 726.279 22.4666 726.279 25.8197H726.529C726.529 22.3457 723.997 19.4448 720.43 19.4448V19.6948ZM726.279 25.8197V25.8699H726.529V25.8197H726.279ZM726.279 25.8699C726.279 29.2225 723.893 31.9195 720.48 31.9195V32.1695C724.046 32.1695 726.529 29.3446 726.529 25.8699H726.279ZM737.161 34.7302L737.042 34.7711L737.072 34.8552H737.161V34.7302ZM739.821 34.7302V34.8552H739.911L739.939 34.7707L739.821 34.7302ZM744.138 22.1049L744.257 22.0645L744.138 21.7186L744.02 22.0645L744.138 22.1049ZM748.456 34.7302L748.337 34.7707L748.366 34.8552H748.456V34.7302ZM751.141 34.7302V34.8552H751.23L751.259 34.771L751.141 34.7302ZM757.241 17.0347L757.359 17.0755L757.416 16.9097H757.241V17.0347ZM754.003 17.0347V16.9097H753.912L753.884 16.9964L754.003 17.0347ZM749.811 30.0616L749.692 30.1008L749.813 30.465L749.93 30.0999L749.811 30.0616ZM745.494 16.9845L745.613 16.9453L745.584 16.8595H745.494V16.9845ZM742.883 16.9845V16.8595H742.793L742.765 16.9453L742.883 16.9845ZM738.566 30.0616L738.447 30.0999L738.565 30.465L738.685 30.1008L738.566 30.0616ZM734.375 17.0347L734.494 16.9964L734.466 16.9097H734.375V17.0347ZM731.036 17.0347V16.9097H730.861L730.918 17.0756L731.036 17.0347ZM737.161 34.8552H739.821V34.6052H737.161V34.8552ZM739.939 34.7707L744.257 22.1454L744.02 22.0645L739.703 34.6898L739.939 34.7707ZM744.02 22.1454L748.337 34.7707L748.574 34.6898L744.257 22.0645L744.02 22.1454ZM748.456 34.8552H751.141V34.6052H748.456V34.8552ZM751.259 34.771L757.359 17.0755L757.122 16.994L751.023 34.6895L751.259 34.771ZM757.241 16.9097H754.003V17.1597H757.241V16.9097ZM753.884 16.9964L749.692 30.0233L749.93 30.0999L754.122 17.073L753.884 16.9964ZM749.93 30.0224L745.613 16.9453L745.375 17.0237L749.692 30.1008L749.93 30.0224ZM745.494 16.8595H742.883V17.1095H745.494V16.8595ZM742.765 16.9453L738.448 30.0224L738.685 30.1008L743.002 17.0237L742.765 16.9453ZM738.685 30.0233L734.494 16.9964L734.256 17.073L738.447 30.0999L738.685 30.0233ZM734.375 16.9097H731.036V17.1597H734.375V16.9097ZM730.918 17.0756L737.042 34.7711L737.279 34.6894L731.154 16.9939L730.918 17.0756Z" fill="#1E94D2"/>
<path d="M845.109 406.044H844.984V406.169H845.109V406.044ZM858.261 406.044V406.169H858.386V406.044H858.261ZM858.261 403.283H858.386V403.158H858.261V403.283ZM848.196 403.283H848.071V403.408H848.196V403.283ZM848.196 398.564V398.439H848.071V398.564H848.196ZM857.006 398.564V398.689H857.131V398.564H857.006ZM857.006 395.803H857.131V395.678H857.006V395.803ZM848.196 395.803H848.071V395.928H848.196V395.803ZM848.196 391.235V391.11H848.071V391.235H848.196ZM858.136 391.235V391.36H858.261V391.235H858.136ZM858.136 388.474H858.261V388.349H858.136V388.474ZM845.109 388.474V388.349H844.984V388.474H845.109ZM845.109 406.169H858.261V405.919H845.109V406.169ZM858.386 406.044V403.283H858.136V406.044H858.386ZM858.261 403.158H848.196V403.408H858.261V403.158ZM848.321 403.283V398.564H848.071V403.283H848.321ZM848.196 398.689H857.006V398.439H848.196V398.689ZM857.131 398.564V395.803H856.881V398.564H857.131ZM857.006 395.678H848.196V395.928H857.006V395.678ZM848.321 395.803V391.235H848.071V395.803H848.321ZM848.196 391.36H858.136V391.11H848.196V391.36ZM858.261 391.235V388.474H858.011V391.235H858.261ZM858.136 388.349H845.109V388.599H858.136V388.349ZM844.984 388.474V406.044H845.234V388.474H844.984ZM861.924 406.044H861.799V406.169H861.924V406.044ZM864.961 406.044V406.169H865.086V406.044H864.961ZM864.961 393.544L865.06 393.468L864.836 393.179V393.544H864.961ZM874.65 406.044L874.551 406.121L874.588 406.169H874.65V406.044ZM877.235 406.044V406.169H877.36V406.044H877.235ZM877.235 388.474H877.36V388.349H877.235V388.474ZM874.198 388.474V388.349H874.073V388.474H874.198ZM874.198 400.623L874.099 400.699L874.323 400.988V400.623H874.198ZM864.785 388.474L864.884 388.398L864.847 388.349H864.785V388.474ZM861.924 388.474V388.349H861.799V388.474H861.924ZM861.924 406.169H864.961V405.919H861.924V406.169ZM865.086 406.044V393.544H864.836V406.044H865.086ZM864.862 393.621L874.551 406.121L874.748 405.968L865.06 393.468L864.862 393.621ZM874.65 406.169H877.235V405.919H874.65V406.169ZM877.36 406.044V388.474H877.11V406.044H877.36ZM877.235 388.349H874.198V388.599H877.235V388.349ZM874.073 388.474V400.623H874.323V388.474H874.073ZM874.297 400.546L864.884 388.398L864.686 388.551L874.099 400.699L874.297 400.546ZM864.785 388.349H861.924V388.599H864.785V388.349ZM861.799 388.474V406.044H862.049V388.474H861.799ZM881.754 406.044H881.629V406.169H881.754V406.044ZM894.906 406.044V406.169H895.031V406.044H894.906ZM894.906 403.283H895.031V403.158H894.906V403.283ZM884.841 403.283H884.716V403.408H884.841V403.283ZM884.841 398.564V398.439H884.716V398.564H884.841ZM893.651 398.564V398.689H893.776V398.564H893.651ZM893.651 395.803H893.776V395.678H893.651V395.803ZM884.841 395.803H884.716V395.928H884.841V395.803ZM884.841 391.235V391.11H884.716V391.235H884.841ZM894.781 391.235V391.36H894.906V391.235H894.781ZM894.781 388.474H894.906V388.349H894.781V388.474ZM881.754 388.474V388.349H881.629V388.474H881.754ZM881.754 406.169H894.906V405.919H881.754V406.169ZM895.031 406.044V403.283H894.781V406.044H895.031ZM894.906 403.158H884.841V403.408H894.906V403.158ZM884.966 403.283V398.564H884.716V403.283H884.966ZM884.841 398.689H893.651V398.439H884.841V398.689ZM893.776 398.564V395.803H893.526V398.564H893.776ZM893.651 395.678H884.841V395.928H893.651V395.678ZM884.966 395.803V391.235H884.716V395.803H884.966ZM884.841 391.36H894.781V391.11H884.841V391.36ZM894.906 391.235V388.474H894.656V391.235H894.906ZM894.781 388.349H881.754V388.599H894.781V388.349ZM881.629 388.474V406.044H881.879V388.474H881.629ZM898.569 406.044H898.444V406.169H898.569V406.044ZM901.656 406.044V406.169H901.781V406.044H901.656ZM901.656 399.92V399.795H901.531V399.92H901.656ZM905.522 399.92L905.624 399.848L905.586 399.795H905.522V399.92ZM909.839 406.044L909.737 406.116L909.774 406.169H909.839V406.044ZM913.503 406.044V406.169H913.746L913.605 405.972L913.503 406.044ZM908.76 399.393L908.725 399.273L908.555 399.322L908.658 399.465L908.76 399.393ZM911.47 390.231L911.56 390.144L911.558 390.142L911.47 390.231ZM898.569 388.474V388.349H898.444V388.474H898.569ZM901.656 397.184H901.531V397.309H901.656V397.184ZM901.656 391.285V391.16H901.531V391.285H901.656ZM898.569 406.169H901.656V405.919H898.569V406.169ZM901.781 406.044V399.92H901.531V406.044H901.781ZM901.656 400.045H905.522V399.795H901.656V400.045ZM905.419 399.992L909.737 406.116L909.941 405.972L905.624 399.848L905.419 399.992ZM909.839 406.169H913.503V405.919H909.839V406.169ZM913.605 405.972L908.861 399.32L908.658 399.465L913.402 406.117L913.605 405.972ZM908.794 399.513C910.03 399.156 911.095 398.536 911.852 397.631C912.61 396.725 913.051 395.541 913.051 394.071H912.801C912.801 395.488 912.377 396.614 911.66 397.471C910.942 398.329 909.924 398.926 908.725 399.273L908.794 399.513ZM913.051 394.071V394.021H912.801V394.071H913.051ZM913.051 394.021C913.051 392.46 912.513 391.123 911.56 390.144L911.381 390.318C912.285 391.247 912.801 392.52 912.801 394.021H913.051ZM911.558 390.142C910.399 389.009 908.633 388.349 906.4 388.349V388.599C908.585 388.599 910.282 389.245 911.383 390.321L911.558 390.142ZM906.4 388.349H898.569V388.599H906.4V388.349ZM898.444 388.474V406.044H898.694V388.474H898.444ZM901.781 397.184V391.285H901.531V397.184H901.781ZM901.656 391.41H906.149V391.16H901.656V391.41ZM906.149 391.41C907.275 391.41 908.153 391.664 908.748 392.133C909.338 392.599 909.664 393.289 909.664 394.197H909.914C909.914 393.223 909.561 392.457 908.903 391.937C908.249 391.421 907.308 391.16 906.149 391.16V391.41ZM909.664 394.197V394.247H909.914V394.197H909.664ZM909.664 394.247C909.664 395.102 909.328 395.8 908.731 396.287C908.131 396.776 907.258 397.059 906.174 397.059V397.309C907.299 397.309 908.233 397.015 908.889 396.481C909.547 395.944 909.914 395.174 909.914 394.247H909.664ZM906.174 397.059H901.656V397.309H906.174V397.059ZM932.37 403.609L932.451 403.704L932.495 403.667V403.609H932.37ZM932.37 396.23H932.495V396.105H932.37V396.23ZM924.89 396.23V396.105H924.765V396.23H924.89ZM924.89 398.916H924.765V399.041H924.89V398.916ZM929.383 398.916H929.508V398.791H929.383V398.916ZM929.383 402.204L929.458 402.304L929.508 402.267V402.204H929.383ZM929.785 392.892L929.704 392.987L929.8 393.069L929.88 392.972L929.785 392.892ZM931.742 390.557L931.838 390.638L931.918 390.543L931.823 390.462L931.742 390.557ZM925.041 406.47C928.188 406.47 930.701 405.201 932.451 403.704L932.289 403.514C930.575 404.98 928.118 406.22 925.041 406.22V406.47ZM932.495 403.609V396.23H932.245V403.609H932.495ZM932.37 396.105H924.89V396.355H932.37V396.105ZM924.765 396.23V398.916H925.015V396.23H924.765ZM924.89 399.041H929.383V398.791H924.89V399.041ZM929.258 398.916V402.204H929.508V398.916H929.258ZM929.308 402.104C928.252 402.89 926.772 403.409 925.141 403.409V403.659C926.823 403.659 928.356 403.124 929.458 402.304L929.308 402.104ZM925.141 403.409C923.379 403.409 921.919 402.757 920.9 401.667C919.879 400.576 919.292 399.039 919.292 397.259H919.042C919.042 399.094 919.648 400.695 920.717 401.837C921.787 402.981 923.314 403.659 925.141 403.659V403.409ZM919.292 397.259V397.209H919.042V397.259H919.292ZM919.292 397.209C919.292 393.902 921.708 391.134 924.865 391.134V390.884C921.546 390.884 919.042 393.789 919.042 397.209H919.292ZM924.865 391.134C927.062 391.134 928.365 391.846 929.704 392.987L929.866 392.797C928.494 391.628 927.136 390.884 924.865 390.884V391.134ZM929.88 392.972L931.838 390.638L931.647 390.477L929.689 392.811L929.88 392.972ZM931.823 390.462C929.995 388.913 928.084 388.048 924.991 388.048V388.298C928.022 388.298 929.876 389.14 931.662 390.653L931.823 390.462ZM924.991 388.048C919.622 388.048 915.804 392.274 915.804 397.259H916.054C916.054 392.405 919.767 388.298 924.991 388.298V388.048ZM915.804 397.259V397.309H916.054V397.259H915.804ZM915.804 397.309C915.804 399.899 916.719 402.191 918.335 403.835C919.951 405.48 922.262 406.47 925.041 406.47V406.22C922.323 406.22 920.078 405.253 918.513 403.66C916.947 402.066 916.054 399.84 916.054 397.309H915.804ZM936.566 406.044H936.441V406.169H936.566V406.044ZM939.653 406.044V406.169H939.778V406.044H939.653ZM939.653 388.474H939.778V388.349H939.653V388.474ZM936.566 388.474V388.349H936.441V388.474H936.566ZM936.566 406.169H939.653V405.919H936.566V406.169ZM939.778 406.044V388.474H939.528V406.044H939.778ZM939.653 388.349H936.566V388.599H939.653V388.349ZM936.441 388.474V406.044H936.691V388.474H936.441ZM943.729 406.044H943.604V406.169H943.729V406.044ZM958.137 406.044V406.169H958.262V406.044H958.137ZM958.137 403.308H958.262V403.183H958.137V403.308ZM947.745 403.308L947.649 403.229L947.48 403.433H947.745V403.308ZM958.137 390.758L958.233 390.838L958.262 390.803V390.758H958.137ZM958.137 388.474H958.262V388.349H958.137V388.474ZM944.056 388.474V388.349H943.931V388.474H944.056ZM944.056 391.21H943.931V391.335H944.056V391.21ZM954.096 391.21L954.192 391.29L954.361 391.085H954.096V391.21ZM943.729 403.76L943.633 403.68L943.604 403.715V403.76H943.729ZM943.729 406.169H958.137V405.919H943.729V406.169ZM958.262 406.044V403.308H958.012V406.044H958.262ZM958.137 403.183H947.745V403.433H958.137V403.183ZM947.842 403.388L958.233 390.838L958.04 390.679L947.649 403.229L947.842 403.388ZM958.262 390.758V388.474H958.012V390.758H958.262ZM958.137 388.349H944.056V388.599H958.137V388.349ZM943.931 388.474V391.21H944.181V388.474H943.931ZM944.056 391.335H954.096V391.085H944.056V391.335ZM953.999 391.13L943.633 403.68L943.826 403.84L954.192 391.29L953.999 391.13ZM943.604 403.76V406.044H943.854V403.76H943.604ZM961.981 406.044H961.856V406.169H961.981V406.044ZM975.133 406.044V406.169H975.258V406.044H975.133ZM975.133 403.283H975.258V403.158H975.133V403.283ZM965.068 403.283H964.943V403.408H965.068V403.283ZM965.068 398.564V398.439H964.943V398.564H965.068ZM973.878 398.564V398.689H974.003V398.564H973.878ZM973.878 395.803H974.003V395.678H973.878V395.803ZM965.068 395.803H964.943V395.928H965.068V395.803ZM965.068 391.235V391.11H964.943V391.235H965.068ZM975.008 391.235V391.36H975.133V391.235H975.008ZM975.008 388.474H975.133V388.349H975.008V388.474ZM961.981 388.474V388.349H961.856V388.474H961.981ZM961.981 406.169H975.133V405.919H961.981V406.169ZM975.258 406.044V403.283H975.008V406.044H975.258ZM975.133 403.158H965.068V403.408H975.133V403.158ZM965.193 403.283V398.564H964.943V403.283H965.193ZM965.068 398.689H973.878V398.439H965.068V398.689ZM974.003 398.564V395.803H973.753V398.564H974.003ZM973.878 395.678H965.068V395.928H973.878V395.678ZM965.193 395.803V391.235H964.943V395.803H965.193ZM965.068 391.36H975.008V391.11H965.068V391.36ZM975.133 391.235V388.474H974.883V391.235H975.133ZM975.008 388.349H961.981V388.599H975.008V388.349ZM961.856 388.474V406.044H962.106V388.474H961.856Z" fill="#1E94D2"/>
<path d="M81.3252 102.824H81.2002V102.949H81.3252V102.824ZM84.4376 102.824V102.949H84.5626V102.824H84.4376ZM84.4376 88.1151V87.9901H84.3126V88.1151H84.4376ZM90.0098 88.1151V88.2401H90.1348V88.1151H90.0098ZM90.0098 85.2537H90.1348V85.1287H90.0098V85.2537ZM75.753 85.2537V85.1287H75.628V85.2537H75.753ZM75.753 88.1151H75.628V88.2401H75.753V88.1151ZM81.3252 88.1151H81.4502V87.9901H81.3252V88.1151ZM81.3252 102.949H84.4376V102.699H81.3252V102.949ZM84.5626 102.824V88.1151H84.3126V102.824H84.5626ZM84.4376 88.2401H90.0098V87.9901H84.4376V88.2401ZM90.1348 88.1151V85.2537H89.8848V88.1151H90.1348ZM90.0098 85.1287H75.753V85.3787H90.0098V85.1287ZM75.628 85.2537V88.1151H75.878V85.2537H75.628ZM75.753 88.2401H81.3252V87.9901H75.753V88.2401ZM81.2002 88.1151V102.824H81.4502V88.1151H81.2002ZM93.2838 102.824H93.1588V102.949H93.2838V102.824ZM106.436 102.824V102.949H106.561V102.824H106.436ZM106.436 100.063H106.561V99.9377H106.436V100.063ZM96.3711 100.063H96.2461V100.188H96.3711V100.063ZM96.3711 95.3439V95.2189H96.2461V95.3439H96.3711ZM105.181 95.3439V95.4689H105.306V95.3439H105.181ZM105.181 92.5829H105.306V92.4579H105.181V92.5829ZM96.3711 92.5829H96.2461V92.7079H96.3711V92.5829ZM96.3711 88.0147V87.8897H96.2461V88.0147H96.3711ZM106.311 88.0147V88.1397H106.436V88.0147H106.311ZM106.311 85.2537H106.436V85.1287H106.311V85.2537ZM93.2838 85.2537V85.1287H93.1588V85.2537H93.2838ZM93.2838 102.949H106.436V102.699H93.2838V102.949ZM106.561 102.824V100.063H106.311V102.824H106.561ZM106.436 99.9377H96.3711V100.188H106.436V99.9377ZM96.4961 100.063V95.3439H96.2461V100.063H96.4961ZM96.3711 95.4689H105.181V95.2189H96.3711V95.4689ZM105.306 95.3439V92.5829H105.056V95.3439H105.306ZM105.181 92.4579H96.3711V92.7079H105.181V92.4579ZM96.4961 92.5829V88.0147H96.2461V92.5829H96.4961ZM96.3711 88.1397H106.311V87.8897H96.3711V88.1397ZM106.436 88.0147V85.2537H106.186V88.0147H106.436ZM106.311 85.1287H93.2838V85.3787H106.311V85.1287ZM93.1588 85.2537V102.824H93.4088V85.2537H93.1588ZM108.593 102.824L108.478 102.774L108.402 102.949H108.593V102.824ZM111.755 102.824V102.949H111.838L111.87 102.873L111.755 102.824ZM113.563 98.5818V98.4568H113.48L113.448 98.5328L113.563 98.5818ZM121.871 98.5818L121.986 98.5334L121.954 98.4568H121.871V98.5818ZM123.653 102.824L123.538 102.872L123.57 102.949H123.653V102.824ZM126.916 102.824V102.949H127.107L127.03 102.774L126.916 102.824ZM119.185 85.1282L119.3 85.0782L119.267 85.0032H119.185V85.1282ZM116.324 85.1282V85.0032H116.242L116.209 85.0782L116.324 85.1282ZM114.692 95.8459L114.577 95.7967L114.503 95.9709H114.692V95.8459ZM117.704 88.8179L117.819 88.7683L117.704 88.5017L117.589 88.7687L117.704 88.8179ZM120.741 95.8459V95.9709H120.931L120.856 95.7963L120.741 95.8459ZM108.593 102.949H111.755V102.699H108.593V102.949ZM111.87 102.873L113.678 98.6308L113.448 98.5328L111.64 102.775L111.87 102.873ZM113.563 98.7068H121.871V98.4568H113.563V98.7068ZM121.756 98.6302L123.538 102.872L123.768 102.775L121.986 98.5334L121.756 98.6302ZM123.653 102.949H126.916V102.699H123.653V102.949ZM127.03 102.774L119.3 85.0782L119.07 85.1783L126.801 102.874L127.03 102.774ZM119.185 85.0032H116.324V85.2532H119.185V85.0032ZM116.209 85.0782L108.478 102.774L108.707 102.874L116.438 85.1783L116.209 85.0782ZM114.807 95.8952L117.819 88.8672L117.589 88.7687L114.577 95.7967L114.807 95.8952ZM117.589 88.8675L120.626 95.8955L120.856 95.7963L117.819 88.7683L117.589 88.8675ZM120.741 95.7209H114.692V95.9709H120.741V95.7209ZM129.929 102.824H129.804V102.949H129.929V102.824ZM132.966 102.824V102.949H133.091V102.824H132.966ZM132.966 90.2737L133.07 90.2043L132.841 89.8614V90.2737H132.966ZM138.463 98.5065L138.359 98.5759L138.396 98.6315H138.463V98.5065ZM138.563 98.5065V98.6315H138.63L138.667 98.5761L138.563 98.5065ZM144.11 90.2235H144.235V89.8122L144.006 90.154L144.11 90.2235ZM144.11 102.824H143.985V102.949H144.11V102.824ZM147.198 102.824V102.949H147.323V102.824H147.198ZM147.198 85.2537H147.323V85.1287H147.198V85.2537ZM143.91 85.2537V85.1287H143.841L143.804 85.1861L143.91 85.2537ZM138.563 93.5618L138.458 93.6295L138.563 93.7928L138.668 93.6295L138.563 93.5618ZM133.217 85.2537L133.322 85.1861L133.285 85.1287H133.217V85.2537ZM129.929 85.2537V85.1287H129.804V85.2537H129.929ZM129.929 102.949H132.966V102.699H129.929V102.949ZM133.091 102.824V90.2737H132.841V102.824H133.091ZM132.862 90.3431L138.359 98.5759L138.567 98.4371L133.07 90.2043L132.862 90.3431ZM138.463 98.6315H138.563V98.3815H138.463V98.6315ZM138.667 98.5761L144.214 90.2931L144.006 90.154L138.459 98.437L138.667 98.5761ZM143.985 90.2235V102.824H144.235V90.2235H143.985ZM144.11 102.949H147.198V102.699H144.11V102.949ZM147.323 102.824V85.2537H147.073V102.824H147.323ZM147.198 85.1287H143.91V85.3787H147.198V85.1287ZM143.804 85.1861L138.458 93.4942L138.668 93.6295L144.015 85.3214L143.804 85.1861ZM138.668 93.4942L133.322 85.1861L133.112 85.3214L138.458 93.6295L138.668 93.4942ZM133.217 85.1287H129.929V85.3787H133.217V85.1287ZM129.804 85.2537V102.824H130.054V85.2537H129.804ZM164.014 102.949L163.896 102.99L163.925 103.074H164.014V102.949ZM166.674 102.949V103.074H166.764L166.793 102.99L166.674 102.949ZM170.992 90.3239L171.11 90.2835L170.992 89.9376L170.873 90.2835L170.992 90.3239ZM175.309 102.949L175.191 102.99L175.219 103.074H175.309V102.949ZM177.995 102.949V103.074H178.084L178.113 102.99L177.995 102.949ZM184.094 85.2537L184.212 85.2945L184.269 85.1287H184.094V85.2537ZM180.856 85.2537V85.1287H180.765L180.737 85.2154L180.856 85.2537ZM176.664 98.2806L176.546 98.3198L176.666 98.684L176.783 98.3189L176.664 98.2806ZM172.347 85.2035L172.466 85.1643L172.437 85.0785H172.347V85.2035ZM169.737 85.2035V85.0785H169.646L169.618 85.1643L169.737 85.2035ZM165.419 98.2806L165.3 98.3189L165.418 98.684L165.538 98.3198L165.419 98.2806ZM161.228 85.2537L161.347 85.2154L161.319 85.1287H161.228V85.2537ZM157.889 85.2537V85.1287H157.714L157.771 85.2946L157.889 85.2537ZM164.014 103.074H166.674V102.824H164.014V103.074ZM166.793 102.99L171.11 90.3644L170.873 90.2835L166.556 102.909L166.793 102.99ZM170.873 90.3644L175.191 102.99L175.427 102.909L171.11 90.2835L170.873 90.3644ZM175.309 103.074H177.995V102.824H175.309V103.074ZM178.113 102.99L184.212 85.2945L183.976 85.213L177.876 102.908L178.113 102.99ZM184.094 85.1287H180.856V85.3787H184.094V85.1287ZM180.737 85.2154L176.545 98.2423L176.783 98.3189L180.975 85.292L180.737 85.2154ZM176.783 98.2414L172.466 85.1643L172.228 85.2427L176.546 98.3198L176.783 98.2414ZM172.347 85.0785H169.737V85.3285H172.347V85.0785ZM169.618 85.1643L165.301 98.2414L165.538 98.3198L169.855 85.2427L169.618 85.1643ZM165.538 98.2423L161.347 85.2154L161.109 85.292L165.3 98.3189L165.538 98.2423ZM161.228 85.1287H157.889V85.3787H161.228V85.1287ZM157.771 85.2946L163.896 102.99L164.132 102.908L158.008 85.2128L157.771 85.2946ZM194.665 103.25C200.132 103.25 204.001 99.0507 204.001 94.0387H203.751C203.751 98.9162 199.99 103 194.665 103V103.25ZM204.001 94.0387V93.9885H203.751V94.0387H204.001ZM204.001 93.9885C204.001 88.9766 200.182 84.8275 194.715 84.8275V85.0775C200.041 85.0775 203.751 89.111 203.751 93.9885H204.001ZM194.715 84.8275C189.248 84.8275 185.378 89.0268 185.378 94.0387H185.628C185.628 89.1613 189.389 85.0775 194.715 85.0775V84.8275ZM185.378 94.0387V94.0889H185.628V94.0387H185.378ZM185.378 94.0889C185.378 99.1008 189.197 103.25 194.665 103.25V103C189.339 103 185.628 98.9664 185.628 94.0889H185.378ZM194.715 100.139C191.303 100.139 188.866 97.3912 188.866 94.0387H188.616C188.616 97.5135 191.149 100.389 194.715 100.389V100.139ZM188.866 94.0387V93.9885H188.616V94.0387H188.866ZM188.866 93.9885C188.866 90.6353 191.253 87.9138 194.665 87.9138V87.6638C191.098 87.6638 188.616 90.5146 188.616 93.9885H188.866ZM194.665 87.9138C198.076 87.9138 200.513 90.6856 200.513 94.0387H200.763C200.763 90.5647 198.231 87.6638 194.665 87.6638V87.9138ZM200.513 94.0387V94.0889H200.763V94.0387H200.513ZM200.513 94.0889C200.513 97.4415 198.127 100.139 194.715 100.139V100.389C198.281 100.389 200.763 97.5636 200.763 94.0889H200.513ZM207.606 102.824H207.481V102.949H207.606V102.824ZM210.694 102.824V102.949H210.819V102.824H210.694ZM210.694 96.6993V96.5743H210.569V96.6993H210.694ZM214.559 96.6993L214.661 96.6273L214.624 96.5743H214.559V96.6993ZM218.876 102.824L218.774 102.896L218.812 102.949H218.876V102.824ZM222.541 102.824V102.949H222.784L222.643 102.751L222.541 102.824ZM217.797 96.1722L217.762 96.0521L217.593 96.1011L217.695 96.2448L217.797 96.1722ZM220.508 87.0107L220.597 86.9235L220.595 86.9214L220.508 87.0107ZM207.606 85.2537V85.1287H207.481V85.2537H207.606ZM210.694 93.9634H210.569V94.0884H210.694V93.9634ZM210.694 88.0649V87.9399H210.569V88.0649H210.694ZM207.606 102.949H210.694V102.699H207.606V102.949ZM210.819 102.824V96.6993H210.569V102.824H210.819ZM210.694 96.8243H214.559V96.5743H210.694V96.8243ZM214.457 96.7713L218.774 102.896L218.979 102.752L214.661 96.6273L214.457 96.7713ZM218.876 102.949H222.541V102.699H218.876V102.949ZM222.643 102.751L217.899 96.0996L217.695 96.2448L222.439 102.896L222.643 102.751ZM217.832 96.2923C219.067 95.9357 220.133 95.3155 220.889 94.4107C221.647 93.5046 222.089 92.3209 222.089 90.851H221.839C221.839 92.2677 221.414 93.3932 220.697 94.2503C219.98 95.1088 218.962 95.706 217.762 96.0521L217.832 96.2923ZM222.089 90.851V90.8008H221.839V90.851H222.089ZM222.089 90.8008C222.089 89.2399 221.551 87.9026 220.597 86.9235L220.418 87.0979C221.322 88.0265 221.839 89.2996 221.839 90.8008H222.089ZM220.595 86.9214C219.437 85.7886 217.67 85.1287 215.438 85.1287V85.3787C217.623 85.3787 219.32 86.0241 220.42 87.1001L220.595 86.9214ZM215.438 85.1287H207.606V85.3787H215.438V85.1287ZM207.481 85.2537V102.824H207.731V85.2537H207.481ZM210.819 93.9634V88.0649H210.569V93.9634H210.819ZM210.694 88.1899H215.187V87.9399H210.694V88.1899ZM215.187 88.1899C216.312 88.1899 217.191 88.4437 217.786 88.9129C218.376 89.3787 218.701 90.0682 218.701 90.9765H218.951C218.951 90.0024 218.599 89.2361 217.94 88.7167C217.286 88.2007 216.345 87.9399 215.187 87.9399V88.1899ZM218.701 90.9765V91.0267H218.951V90.9765H218.701ZM218.701 91.0267C218.701 91.882 218.365 92.5799 217.768 93.0665C217.169 93.5551 216.296 93.8384 215.212 93.8384V94.0884C216.337 94.0884 217.271 93.7944 217.926 93.2603C218.584 92.724 218.951 91.9536 218.951 91.0267H218.701ZM215.212 93.8384H210.694V94.0884H215.212V93.8384ZM225.745 102.824H225.62V102.949H225.745V102.824ZM228.832 102.824V102.949H228.957V102.824H228.832ZM228.832 97.7284L228.743 97.6413L228.707 97.6776V97.7284H228.832ZM231.568 94.9172L231.668 94.8417L231.58 94.7259L231.479 94.83L231.568 94.9172ZM237.567 102.824L237.468 102.899L237.505 102.949H237.567V102.824ZM241.332 102.824V102.949H241.585L241.432 102.748L241.332 102.824ZM233.677 92.8088L233.587 92.7218L233.512 92.7991L233.577 92.8847L233.677 92.8088ZM241.006 85.2537L241.096 85.3408L241.301 85.1287H241.006V85.2537ZM237.191 85.2537V85.1287H237.137L237.1 85.1678L237.191 85.2537ZM228.832 94.0889H228.707V94.403L228.923 94.1748L228.832 94.0889ZM228.832 85.2537H228.957V85.1287H228.832V85.2537ZM225.745 85.2537V85.1287H225.62V85.2537H225.745ZM225.745 102.949H228.832V102.699H225.745V102.949ZM228.957 102.824V97.7284H228.707V102.824H228.957ZM228.922 97.8156L231.658 95.0044L231.479 94.83L228.743 97.6413L228.922 97.8156ZM231.469 94.9928L237.468 102.899L237.667 102.748L231.668 94.8417L231.469 94.9928ZM237.567 102.949H241.332V102.699H237.567V102.949ZM241.432 102.748L233.776 92.7329L233.577 92.8847L241.233 102.9L241.432 102.748ZM233.766 92.8959L241.096 85.3408L240.916 85.1667L233.587 92.7218L233.766 92.8959ZM241.006 85.1287H237.191V85.3787H241.006V85.1287ZM237.1 85.1678L228.742 94.003L228.923 94.1748L237.282 85.3396L237.1 85.1678ZM228.957 94.0889V85.2537H228.707V94.0889H228.957ZM228.832 85.1287H225.745V85.3787H228.832V85.1287ZM225.62 85.2537V102.824H225.87V85.2537H225.62Z" fill="#1E94D2"/>
<path d="M95.8731 494.469L95.9027 494.347L95.9019 494.347L95.8731 494.469ZM99.3118 491.382L99.2371 491.482L99.3397 491.558L99.4138 491.454L99.3118 491.382ZM100.968 489.047L101.07 489.12L101.139 489.023L101.047 488.95L100.968 489.047ZM94.4424 497.23L94.4131 497.351L94.4143 497.352L94.4424 497.23ZM89.7487 499.89L89.8305 499.796L89.7347 499.713L89.653 499.81L89.7487 499.89ZM87.8913 502.099L87.7956 502.019L87.7175 502.112L87.8081 502.192L87.8913 502.099ZM95.2205 505.035C97.0862 505.035 98.6853 504.54 99.8205 503.618C100.959 502.692 101.621 501.344 101.621 499.665H101.371C101.371 501.273 100.74 502.548 99.6628 503.424C98.583 504.301 97.0445 504.785 95.2205 504.785V505.035ZM101.621 499.665V499.614H101.371V499.665H101.621ZM101.621 499.614C101.621 498.126 101.131 497.03 100.159 496.194C99.1946 495.365 97.7651 494.8 95.9027 494.347L95.8436 494.59C97.6959 495.041 99.0777 495.594 99.9959 496.383C100.906 497.166 101.371 498.191 101.371 499.614H101.621ZM95.9019 494.347C94.2062 493.945 93.1795 493.598 92.5764 493.192C92.2783 492.991 92.0886 492.779 91.9719 492.543C91.8549 492.306 91.8064 492.035 91.8064 491.708H91.5564C91.5564 492.059 91.6084 492.371 91.7478 492.653C91.8876 492.936 92.1105 493.179 92.4368 493.399C93.0824 493.834 94.1515 494.189 95.8443 494.59L95.9019 494.347ZM91.8064 491.708V491.658H91.5564V491.708H91.8064ZM91.8064 491.658C91.8064 491.122 92.0499 490.636 92.5106 490.282C92.9732 489.926 93.6596 489.699 94.5428 489.699V489.449C93.6188 489.449 92.8746 489.687 92.3582 490.084C91.84 490.483 91.5564 491.039 91.5564 491.658H91.8064ZM94.5428 489.699C96.1148 489.699 97.6705 490.313 99.2371 491.482L99.3866 491.281C97.7905 490.091 96.1836 489.449 94.5428 489.449V489.699ZM99.4138 491.454L101.07 489.12L100.866 488.975L99.2099 491.309L99.4138 491.454ZM101.047 488.95C99.2428 487.502 97.1822 486.713 94.593 486.713V486.963C97.1242 486.963 99.1298 487.731 100.89 489.145L101.047 488.95ZM94.593 486.713C91.0558 486.713 88.4691 488.834 88.4691 491.934H88.7191C88.7191 489.01 91.1524 486.963 94.593 486.963V486.713ZM88.4691 491.934V491.984H88.7191V491.934H88.4691ZM88.4691 491.984C88.4691 493.636 89.0096 494.759 90.0378 495.58C91.0558 496.392 92.5421 496.899 94.4131 497.351L94.4718 497.108C92.6029 496.657 91.165 496.16 90.1938 495.385C89.2329 494.618 88.7191 493.57 88.7191 491.984H88.4691ZM94.4143 497.352C96.0454 497.728 97.0146 498.081 97.5759 498.486C97.8533 498.686 98.0277 498.896 98.134 499.125C98.2408 499.355 98.2832 499.613 98.2832 499.916H98.5332C98.5332 499.59 98.4877 499.293 98.3608 499.02C98.2334 498.745 98.0281 498.504 97.722 498.283C97.1161 497.847 96.1024 497.485 94.4705 497.108L94.4143 497.352ZM98.2832 499.916V499.966H98.5332V499.916H98.2832ZM98.2832 499.966C98.2832 500.575 98.0038 501.091 97.4943 501.458C96.9816 501.828 96.2315 502.05 95.2958 502.05V502.3C96.2678 502.3 97.0738 502.069 97.6405 501.661C98.2102 501.25 98.5332 500.661 98.5332 499.966H98.2832ZM95.2958 502.05C93.1753 502.05 91.4965 501.238 89.8305 499.796L89.6669 499.985C91.3644 501.454 93.0991 502.3 95.2958 502.3V502.05ZM89.653 499.81L87.7956 502.019L87.987 502.18L89.8444 499.971L89.653 499.81ZM87.8081 502.192C89.9396 504.096 92.5045 505.035 95.2205 505.035V504.785C92.5652 504.785 90.0598 503.868 87.9746 502.006L87.8081 502.192ZM105.126 504.659H105.001V504.784H105.126V504.659ZM108.213 504.659V504.784H108.338V504.659H108.213ZM108.213 497.255V497.13H108.088V497.255H108.213ZM116.597 497.255H116.722V497.13H116.597V497.255ZM116.597 504.659H116.472V504.784H116.597V504.659ZM119.684 504.659V504.784H119.809V504.659H119.684ZM119.684 487.089H119.809V486.964H119.684V487.089ZM116.597 487.089V486.964H116.472V487.089H116.597ZM116.597 494.394V494.519H116.722V494.394H116.597ZM108.213 494.394H108.088V494.519H108.213V494.394ZM108.213 487.089H108.338V486.964H108.213V487.089ZM105.126 487.089V486.964H105.001V487.089H105.126ZM105.126 504.784H108.213V504.534H105.126V504.784ZM108.338 504.659V497.255H108.088V504.659H108.338ZM108.213 497.38H116.597V497.13H108.213V497.38ZM116.472 497.255V504.659H116.722V497.255H116.472ZM116.597 504.784H119.684V504.534H116.597V504.784ZM119.809 504.659V487.089H119.559V504.659H119.809ZM119.684 486.964H116.597V487.214H119.684V486.964ZM116.472 487.089V494.394H116.722V487.089H116.472ZM116.597 494.269H108.213V494.519H116.597V494.269ZM108.338 494.394V487.089H108.088V494.394H108.338ZM108.213 486.964H105.126V487.214H108.213V486.964ZM105.001 487.089V504.659H105.251V487.089H105.001ZM122.69 504.659L122.576 504.609L122.499 504.784H122.69V504.659ZM125.853 504.659V504.784H125.936L125.968 504.708L125.853 504.659ZM127.66 500.418V500.293H127.577L127.545 500.369L127.66 500.418ZM135.968 500.418L136.083 500.369L136.051 500.293H135.968V500.418ZM137.75 504.659L137.635 504.708L137.667 504.784H137.75V504.659ZM141.013 504.659V504.784H141.204L141.128 504.609L141.013 504.659ZM133.283 486.964L133.397 486.914L133.364 486.839H133.283V486.964ZM130.421 486.964V486.839H130.339L130.307 486.914L130.421 486.964ZM128.79 497.682L128.675 497.632L128.6 497.807H128.79V497.682ZM131.802 490.654L131.916 490.604L131.801 490.337L131.687 490.604L131.802 490.654ZM134.839 497.682V497.807H135.029L134.953 497.632L134.839 497.682ZM122.69 504.784H125.853V504.534H122.69V504.784ZM125.968 504.708L127.775 500.467L127.545 500.369L125.738 504.61L125.968 504.708ZM127.66 500.543H135.968V500.293H127.66V500.543ZM135.853 500.466L137.635 504.708L137.866 504.611L136.083 500.369L135.853 500.466ZM137.75 504.784H141.013V504.534H137.75V504.784ZM141.128 504.609L133.397 486.914L133.168 487.014L140.899 504.709L141.128 504.609ZM133.283 486.839H130.421V487.089H133.283V486.839ZM130.307 486.914L122.576 504.609L122.805 504.709L130.536 487.014L130.307 486.914ZM128.904 497.731L131.917 490.703L131.687 490.604L128.675 497.632L128.904 497.731ZM131.687 490.703L134.724 497.731L134.953 497.632L131.916 490.604L131.687 490.703ZM134.839 497.557H128.79V497.807H134.839V497.557ZM144.026 504.659H143.901V504.784H144.026V504.659ZM147.114 504.659V504.784H147.239V504.659H147.114ZM147.114 498.535V498.41H146.989V498.535H147.114ZM150.979 498.535L151.081 498.463L151.044 498.41H150.979V498.535ZM155.296 504.659L155.194 504.731L155.231 504.784H155.296V504.659ZM158.961 504.659V504.784H159.203L159.063 504.587L158.961 504.659ZM154.217 498.008L154.182 497.888L154.013 497.937L154.115 498.081L154.217 498.008ZM156.928 488.846L157.017 488.759L157.015 488.757L156.928 488.846ZM144.026 487.089V486.964H143.901V487.089H144.026ZM147.114 495.799H146.989V495.924H147.114V495.799ZM147.114 489.901V489.776H146.989V489.901H147.114ZM144.026 504.784H147.114V504.534H144.026V504.784ZM147.239 504.659V498.535H146.989V504.659H147.239ZM147.114 498.66H150.979V498.41H147.114V498.66ZM150.877 498.607L155.194 504.731L155.398 504.587L151.081 498.463L150.877 498.607ZM155.296 504.784H158.961V504.534H155.296V504.784ZM159.063 504.587L154.319 497.935L154.115 498.081L158.859 504.732L159.063 504.587ZM154.252 498.128C155.487 497.771 156.552 497.151 157.309 496.246C158.067 495.34 158.508 494.157 158.508 492.687H158.258C158.258 494.103 157.834 495.229 157.117 496.086C156.399 496.944 155.381 497.542 154.182 497.888L154.252 498.128ZM158.508 492.687V492.637H158.258V492.687H158.508ZM158.508 492.637C158.508 491.076 157.971 489.738 157.017 488.759L156.838 488.934C157.742 489.862 158.258 491.135 158.258 492.637H158.508ZM157.015 488.757C155.857 487.624 154.09 486.964 151.857 486.964V487.214C154.042 487.214 155.74 487.86 156.84 488.936L157.015 488.757ZM151.857 486.964H144.026V487.214H151.857V486.964ZM143.901 487.089V504.659H144.151V487.089H143.901ZM147.239 495.799V489.901H146.989V495.799H147.239ZM147.114 490.026H151.606V489.776H147.114V490.026ZM151.606 490.026C152.732 490.026 153.611 490.279 154.205 490.749C154.796 491.214 155.121 491.904 155.121 492.812H155.371C155.371 491.838 155.019 491.072 154.36 490.552C153.706 490.036 152.765 489.776 151.606 489.776V490.026ZM155.121 492.812V492.862H155.371V492.812H155.121ZM155.121 492.862C155.121 493.718 154.785 494.416 154.188 494.902C153.589 495.391 152.715 495.674 151.632 495.674V495.924C152.757 495.924 153.691 495.63 154.346 495.096C155.004 494.56 155.371 493.789 155.371 492.862H155.121ZM151.632 495.674H147.114V495.924H151.632V495.674ZM162.165 504.659H162.04V504.784H162.165V504.659ZM175.317 504.659V504.784H175.442V504.659H175.317ZM175.317 501.898H175.442V501.773H175.317V501.898ZM165.252 501.898H165.127V502.023H165.252V501.898ZM165.252 497.18V497.055H165.127V497.18H165.252ZM174.062 497.18V497.305H174.187V497.18H174.062ZM174.062 494.419H174.187V494.294H174.062V494.419ZM165.252 494.419H165.127V494.544H165.252V494.419ZM165.252 489.85V489.725H165.127V489.85H165.252ZM175.192 489.85V489.975H175.317V489.85H175.192ZM175.192 487.089H175.317V486.964H175.192V487.089ZM162.165 487.089V486.964H162.04V487.089H162.165ZM162.165 504.784H175.317V504.534H162.165V504.784ZM175.442 504.659V501.898H175.192V504.659H175.442ZM175.317 501.773H165.252V502.023H175.317V501.773ZM165.377 501.898V497.18H165.127V501.898H165.377ZM165.252 497.305H174.062V497.055H165.252V497.305ZM174.187 497.18V494.419H173.937V497.18H174.187ZM174.062 494.294H165.252V494.544H174.062V494.294ZM165.377 494.419V489.85H165.127V494.419H165.377ZM165.252 489.975H175.192V489.725H165.252V489.975ZM175.317 489.85V487.089H175.067V489.85H175.317ZM175.192 486.964H162.165V487.214H175.192V486.964ZM162.04 487.089V504.659H162.29V487.089H162.04Z" fill="#1E94D2"/>
<path d="M581.971 682.382H581.846V682.507H581.971V682.382ZM594.295 682.382V682.507H594.42V682.382H594.295ZM594.295 679.571H594.42V679.446H594.295V679.571ZM585.058 679.571H584.933V679.696H585.058V679.571ZM585.058 664.812H585.183V664.687H585.058V664.812ZM581.971 664.812V664.687H581.846V664.812H581.971ZM581.971 682.507H594.295V682.257H581.971V682.507ZM594.42 682.382V679.571H594.17V682.382H594.42ZM594.295 679.446H585.058V679.696H594.295V679.446ZM585.183 679.571V664.812H584.933V679.571H585.183ZM585.058 664.687H581.971V664.937H585.058V664.687ZM581.846 664.812V682.382H582.096V664.812H581.846ZM604.89 682.808C610.357 682.808 614.227 678.609 614.227 673.597H613.977C613.977 678.475 610.216 682.558 604.89 682.558V682.808ZM614.227 673.597V673.547H613.977V673.597H614.227ZM614.227 673.547C614.227 668.535 610.408 664.386 604.94 664.386V664.636C610.266 664.636 613.977 668.669 613.977 673.547H614.227ZM604.94 664.386C599.473 664.386 595.604 668.585 595.604 673.597H595.854C595.854 668.72 599.615 664.636 604.94 664.636V664.386ZM595.604 673.597V673.647H595.854V673.597H595.604ZM595.604 673.647C595.604 678.659 599.423 682.808 604.89 682.808V682.558C599.564 682.558 595.854 678.525 595.854 673.647H595.604ZM604.94 679.697C601.528 679.697 599.091 676.95 599.091 673.597H598.841C598.841 677.072 601.375 679.947 604.94 679.947V679.697ZM599.091 673.597V673.547H598.841V673.597H599.091ZM599.091 673.547C599.091 670.194 601.479 667.472 604.89 667.472V667.222C601.324 667.222 598.841 670.073 598.841 673.547H599.091ZM604.89 667.472C608.302 667.472 610.739 670.244 610.739 673.597H610.989C610.989 670.123 608.456 667.222 604.89 667.222V667.472ZM610.739 673.597V673.647H610.989V673.597H610.739ZM610.739 673.647C610.739 677 608.352 679.697 604.94 679.697V679.947C608.506 679.947 610.989 677.122 610.989 673.647H610.739ZM622.527 682.508L622.411 682.555L622.443 682.633H622.527V682.508ZM625.263 682.508V682.633H625.347L625.378 682.555L625.263 682.508ZM632.542 664.812L632.657 664.86L632.728 664.687H632.542V664.812ZM629.203 664.812V664.687H629.118L629.087 664.767L629.203 664.812ZM623.932 678.316L623.816 678.362L623.933 678.659L624.049 678.361L623.932 678.316ZM618.636 664.812L618.753 664.766L618.722 664.687H618.636V664.812ZM615.223 664.812V664.687H615.036L615.107 664.86L615.223 664.812ZM622.527 682.633H625.263V682.383H622.527V682.633ZM625.378 682.555L632.657 664.86L632.426 664.765L625.147 682.46L625.378 682.555ZM632.542 664.687H629.203V664.937H632.542V664.687ZM629.087 664.767L623.816 678.27L624.049 678.361L629.32 664.858L629.087 664.767ZM624.049 678.27L618.753 664.766L618.52 664.858L623.816 678.362L624.049 678.27ZM618.636 664.687H615.223V664.937H618.636V664.687ZM615.107 664.86L622.411 682.555L622.642 682.46L615.338 664.764L615.107 664.86ZM635.554 682.382H635.429V682.507H635.554V682.382ZM648.706 682.382V682.507H648.831V682.382H648.706ZM648.706 679.621H648.831V679.496H648.706V679.621ZM638.641 679.621H638.516V679.746H638.641V679.621ZM638.641 674.902V674.777H638.516V674.902H638.641ZM647.451 674.902V675.027H647.576V674.902H647.451ZM647.451 672.141H647.576V672.016H647.451V672.141ZM638.641 672.141H638.516V672.266H638.641V672.141ZM638.641 667.573V667.448H638.516V667.573H638.641ZM648.581 667.573V667.698H648.706V667.573H648.581ZM648.581 664.812H648.706V664.687H648.581V664.812ZM635.554 664.812V664.687H635.429V664.812H635.554ZM635.554 682.507H648.706V682.257H635.554V682.507ZM648.831 682.382V679.621H648.581V682.382H648.831ZM648.706 679.496H638.641V679.746H648.706V679.496ZM638.766 679.621V674.902H638.516V679.621H638.766ZM638.641 675.027H647.451V674.777H638.641V675.027ZM647.576 674.902V672.141H647.326V674.902H647.576ZM647.451 672.016H638.641V672.266H647.451V672.016ZM638.766 672.141V667.573H638.516V672.141H638.766ZM638.641 667.698H648.581V667.448H638.641V667.698ZM648.706 667.573V664.812H648.456V667.573H648.706ZM648.581 664.687H635.554V664.937H648.581V664.687ZM635.429 664.812V682.382H635.679V664.812H635.429Z" fill="#1E94D2"/>
</svg>
