<svg width="295" height="265" viewBox="0 0 295 265" fill="none" xmlns="http://www.w3.org/2000/svg">
<path d="M261.244 75.8696L228.475 56.7619L261.244 37.6543V75.8696V75.8696ZM261.244 75.8696L294 56.7619L261.244 37.6543V75.8696ZM195.719 75.8696L162.963 56.7619L195.719 37.6543V75.8696V75.8696Z" stroke="#0673BB" stroke-width="0.75" stroke-miterlimit="10"/>
<path d="M163.129 57.0547L196.229 37.9471L163.129 18.8267V57.0547Z" stroke="#2191D0" stroke-width="0.75" stroke-miterlimit="10"/>
<path d="M228.653 57.0551L195.884 37.9475L228.653 18.8398V57.0551V57.0551ZM228.653 57.0551L261.409 37.9475L228.653 18.8398V57.0551ZM163.128 57.0551L130.372 37.9475L163.128 18.8398V57.0551Z" stroke="#0673BB" stroke-width="0.75" stroke-miterlimit="10"/>
<path d="M97.9495 57.0551L131.05 37.9475L97.9495 18.8398V57.0551Z" stroke="#0673BB" stroke-width="0.75" stroke-miterlimit="10"/>
<path d="M97.9495 18.8398L131.05 37.9475L97.9495 57.0551V18.8398Z" stroke="#005594" stroke-width="0.75" stroke-miterlimit="10"/>
<path d="M130.475 113.052L163.18 94.1736L130.475 75.2955V113.052ZM97.7704 207.455L130.475 188.577L97.7704 169.698V207.467V207.455ZM130.475 226.333L97.7704 207.455L130.475 188.577V226.345V226.333ZM97.7704 245.211L130.475 226.333L97.7704 207.455V245.223V245.211ZM261.295 75.2828L294 94.1608L261.295 113.039V75.27V75.2828Z" stroke="#95D5F4" stroke-width="0.75" stroke-miterlimit="10"/>
<path d="M163.129 132.325L196.229 113.205L163.129 94.0972V132.325Z" stroke="#2191D0" stroke-width="0.75" stroke-miterlimit="10"/>
<path d="M196.05 113.511L162.95 94.3904L196.05 75.2827V113.511Z" stroke="#95D5F4" stroke-width="0.75" stroke-miterlimit="10"/>
<path d="M163.461 132.325L130.361 113.205L163.461 94.0972V132.325Z" stroke="#95D5F4" stroke-width="0.75" stroke-miterlimit="10"/>
<path d="M163.129 94.6963L196.229 75.5759L163.129 56.4683V94.6963Z" stroke="#2191D0" stroke-width="0.75" stroke-miterlimit="10"/>
<path d="M163.461 94.6963L130.361 75.5759L163.461 56.4683V94.6963Z" stroke="#005594" stroke-width="0.75" stroke-miterlimit="10"/>
<path d="M130.872 75.2827L97.7712 94.3904L130.872 113.511V75.2827Z" stroke="#28A7E0" stroke-width="0.75" stroke-miterlimit="10"/>
<path d="M97.9495 56.4683L131.05 75.5759L97.9495 94.6963V56.4683Z" stroke="#0673BB" stroke-width="0.75" stroke-miterlimit="10"/>
<path d="M163.461 207.582L130.705 188.666L163.461 169.75V207.582ZM97.9363 94.0972L130.692 113.013L97.9363 131.93V94.0972Z" stroke="#28A7E0" stroke-width="0.75" stroke-miterlimit="10"/>
<path d="M130.704 75.8696L97.7691 56.7619L130.704 37.6543V75.8696ZM130.704 75.8696L163.638 56.7619L130.704 37.6543V75.8696Z" stroke="#52C2ED" stroke-width="0.75" stroke-miterlimit="10"/>
<path d="M130.527 75.8696L163.627 56.7619L130.527 37.6543V75.8696Z" stroke="#2191D0" stroke-width="0.75" stroke-miterlimit="10"/>
<path d="M195.886 0.0126953L228.808 18.878L195.886 37.7305V0.0126953ZM195.886 264.025L162.951 245.159L195.886 226.307V264.025V264.025ZM195.886 264.025L228.82 245.159L195.886 226.307V264.025Z" stroke="#95D5F4" stroke-width="0.75" stroke-miterlimit="10"/>
<path d="M196.064 0.0253906L162.951 19.133L196.064 38.2407V0.0253906Z" stroke="#005594" stroke-width="0.75" stroke-miterlimit="10"/>
<path d="M130.704 38.2407L97.7691 19.1331L130.704 0.0126953V38.2407ZM130.704 0.0254507L97.7691 19.1331L130.704 38.2407V0.0126953V0.0254507ZM130.704 0.0254507L163.638 19.1331L130.704 38.2407V0.0126953V0.0254507Z" stroke="#0673BB" stroke-width="0.75" stroke-miterlimit="10"/>
<path d="M130.538 38.2407L163.638 19.1331L130.538 0.0126953V38.2407Z" stroke="#CCEAFA" stroke-width="0.75" stroke-miterlimit="10"/>
<path d="M0.166256 75.8696L33.2666 56.7619L0.166256 37.6543V75.8696Z" stroke="#95D5F4" stroke-width="0.75" stroke-miterlimit="10"/>
<path d="M65.525 75.8696L32.5904 56.7619L65.525 37.6543V75.8696ZM65.525 75.8696L98.4595 56.7619L65.525 37.6543V75.8696Z" stroke="#0673BB" stroke-width="0.75" stroke-miterlimit="10"/>
<path d="M98.2803 94.0972L65.1799 113.218L98.2803 132.325V94.0972Z" stroke="#95D5F4" stroke-width="0.75" stroke-miterlimit="10"/>
<path d="M98.2803 56.4683L65.1799 75.5759L98.2803 94.6963V56.4683Z" stroke="#0673BB" stroke-width="0.75" stroke-miterlimit="10"/>
<path d="M65.6895 37.6543L32.5891 56.7619L65.6895 75.8823V37.6543Z" stroke="#CCEAFA" stroke-width="0.75" stroke-miterlimit="10"/>
<path d="M32.7546 56.4683L65.855 75.5759L32.7546 94.6963V56.4683Z" stroke="#2191D0" stroke-width="0.75" stroke-miterlimit="10"/>
<path d="M65.3459 37.6543L98.4463 56.7619L65.3459 75.8823V37.6543Z" stroke="#CCEAFA" stroke-width="0.75" stroke-miterlimit="10"/>
<path d="M32.9346 57.0551L7.75779e-05 37.9475L32.9346 18.8398V57.0679V57.0551ZM32.9346 57.0551L65.8691 37.9475L32.9346 18.8398V57.0679V57.0551Z" stroke="#0673BB" stroke-width="0.75" stroke-miterlimit="10"/>
<path d="M32.7546 18.8398L65.855 37.9475L32.7546 57.0551V18.8398Z" stroke="#95D5F4" stroke-width="0.75" stroke-miterlimit="10"/>
<path d="M65.6895 75.2827L32.5891 94.3904L65.6895 113.511V75.2827Z" stroke="#2191D0" stroke-width="0.75" stroke-miterlimit="10"/>
<path d="M65.3459 75.2827L98.4463 94.3904L65.3459 113.511V75.2827Z" stroke="#95D5F4" stroke-width="0.75" stroke-miterlimit="10"/>
<path d="M33.1001 94.6963L-0.000264289 75.5759L33.1001 56.4683V94.6963Z" stroke="#005594" stroke-width="0.75" stroke-miterlimit="10"/>
<path d="M33.1001 94.0972L-0.000264289 113.218L33.1001 132.325V94.0972Z" stroke="#005594" stroke-width="0.75" stroke-miterlimit="10"/>
<path d="M32.7546 94.0972L65.855 113.218L32.7546 132.325V94.0972Z" stroke="#95D5F4" stroke-width="0.75" stroke-miterlimit="10"/>
<path d="M98.2803 18.8398L65.1799 37.9475L98.2803 57.0551V18.8398Z" stroke="#005594" stroke-width="0.75" stroke-miterlimit="10"/>
<path d="M0.166256 0.0126953L33.2666 18.878L0.166256 37.7305V0.0126953ZM0.166256 264.037L33.2666 245.172L0.166256 226.32V264.037Z" stroke="#95D5F4" stroke-width="0.75" stroke-miterlimit="10"/>
<path d="M65.525 0.0253906L32.5904 19.133L65.525 38.2407V0.0253906ZM65.525 0.0253906L98.4595 19.133L65.525 38.2407V0.0253906Z" stroke="#0673BB" stroke-width="0.75" stroke-miterlimit="10"/>
<path d="M65.525 38.2407L98.4595 19.133L65.525 0.0253906V38.2407ZM65.525 38.2407L32.5904 19.133L65.525 0.0253906V38.2407Z" stroke="#CCEAFA" stroke-width="0.75" stroke-miterlimit="10"/>
<path d="M49.3887 47.0547L32.5898 56.7616L49.3887 66.4685V47.0547Z" stroke="#2191D0" stroke-width="0.75" stroke-miterlimit="10"/>
<path d="M33.1001 37.6543L16.2884 47.3612L33.1001 57.0553V37.6543Z" stroke="#52C2ED" stroke-width="0.75" stroke-miterlimit="10"/>
<path d="M32.7548 37.6543L49.5664 47.3612L32.7548 57.0553V37.6543Z" stroke="#2191D0" stroke-width="0.75" stroke-miterlimit="10"/>
<path d="M32.9333 56.4683L49.5664 66.1751L32.9333 75.882V56.481V56.4683ZM32.9333 56.4683L16.3002 66.1751L32.9333 75.882V56.481V56.4683Z" stroke="#95D5F4" stroke-width="0.75" stroke-miterlimit="10"/>
<path d="M16.4677 47.0547L33.2666 56.7616L16.4677 66.4685V47.0547Z" stroke="#005594" stroke-width="0.75" stroke-miterlimit="10"/>
<path d="M147.171 9.41357L130.36 19.1205L147.171 28.8146V9.41357Z" stroke="#0673BB" stroke-width="0.75" stroke-miterlimit="10"/>
<path d="M130.872 0L114.073 9.70688L130.872 19.4138V0Z" stroke="#005594" stroke-width="0.75" stroke-miterlimit="10"/>
<path d="M114.238 9.41357L131.05 19.1205L114.238 28.8146V9.41357Z" stroke="#2191D0" stroke-width="0.75" stroke-miterlimit="10"/>
<path d="M130.527 0L147.338 9.70688L130.527 19.4138V0Z" stroke="#52C2ED" stroke-width="0.75" stroke-miterlimit="10"/>
<path d="M130.872 18.814L114.073 28.5209L130.872 38.2277V18.814Z" stroke="#2191D0" stroke-width="0.75" stroke-miterlimit="10"/>
<path d="M130.527 18.814L147.338 28.5209L130.527 38.2277V18.814Z" stroke="#95D5F4" stroke-width="0.75" stroke-miterlimit="10"/>
<path d="M114.238 104.123L131.05 94.4159L114.238 84.709V104.123Z" stroke="#0673BB" stroke-width="0.75" stroke-miterlimit="10"/>
<path d="M130.527 113.523L147.338 103.829L130.527 94.1221V113.523Z" stroke="#005594" stroke-width="0.75" stroke-miterlimit="10"/>
<path d="M147.171 104.123L130.36 94.4159L147.171 84.709V104.123Z" stroke="#2191D0" stroke-width="0.75" stroke-miterlimit="10"/>
<path d="M130.872 113.523L114.073 103.829L130.872 94.1221V113.523Z" stroke="#52C2ED" stroke-width="0.75" stroke-miterlimit="10"/>
<path d="M130.527 94.7091L147.338 85.015L130.527 75.3081V94.7091Z" stroke="#2191D0" stroke-width="0.75" stroke-miterlimit="10"/>
<path d="M130.872 94.7091L114.06 85.015L130.872 75.3081V94.7091Z" stroke="#95D5F4" stroke-width="0.75" stroke-miterlimit="10"/>
</svg>
