<svg width="119" height="68" viewBox="0 0 119 68" fill="none" xmlns="http://www.w3.org/2000/svg">
<g clip-path="url(#clip0_866_19089)">
<path d="M89.4736 33.8129L118.95 17.1565L89.4736 0.5V33.8129Z" fill="#0E73BA"/>
<path d="M118.95 50.4692L89.4736 33.8127L118.95 17.1562V50.4692Z" fill="#0E73BA"/>
<path d="M89.4736 67.1259L118.95 50.4694L89.4736 33.813V67.1259Z" fill="#045594"/>
<path d="M89.4738 67.1259L59.9502 50.4694L89.4738 33.813V67.1259Z" fill="#045594"/>
<path d="M89.4738 0.5L59.9502 17.1565L89.4738 33.8129V0.5Z" fill="#2192D0"/>
<path d="M59.9502 17.1562L89.4738 33.8127L59.9502 50.4692V17.1562Z" fill="#2192D0"/>
<path d="M30.4736 33.8129L59.95 17.1565L30.4736 0.5V33.8129Z" fill="#94D6F4"/>
<path d="M59.95 50.4692L30.4736 33.8127L59.95 17.1562V50.4692Z" fill="#94D6F4"/>
<path d="M30.4736 67.1259L59.95 50.4694L30.4736 33.813V67.1259Z" fill="#0E73BA"/>
<path d="M30.4738 67.1259L0.950195 50.4694L30.4738 33.813V67.1259Z" fill="#0E73BA"/>
<path d="M30.4738 0.5L0.950195 17.1565L30.4738 33.8129V0.5Z" fill="#CCEBFB"/>
<path d="M0.950195 17.1562L30.4738 33.8127L0.950195 50.4692V17.1562Z" fill="#CCEBFB"/>
</g>
<defs>
<clipPath id="clip0_866_19089">
<rect width="118" height="66.6258" fill="white" transform="translate(0.950195 0.5)"/>
</clipPath>
</defs>
</svg>
