<svg width="118" height="115" viewBox="0 0 118 115" fill="none" xmlns="http://www.w3.org/2000/svg">
<g clip-path="url(#clip0_866_19077)">
<path d="M53.8339 67.8179L26.917 83.414L53.8339 98.957V67.8179Z" fill="#CCEBFB"/>
<path d="M26.9169 52.2749L0 67.8179L26.9169 83.414V52.2749Z" fill="#2192D0"/>
<path d="M26.917 52.2749L53.8339 67.8179L26.917 83.414V52.2749Z" fill="#53C1EE"/>
<path d="M26.9169 83.4141L0 98.9571L26.9169 114.5V83.4141Z" fill="#53C1EE"/>
<path d="M26.917 83.4141L53.8339 98.9571L26.917 114.5V83.4141Z" fill="#2192D0"/>
<path d="M0 67.8179L26.9169 83.414L0 98.957V67.8179Z" fill="#045594"/>
<path d="M59.1318 31.48L85.9428 15.99L59.1318 0.5V31.48Z" fill="#CCEBFB"/>
<path d="M85.9428 46.9702L59.1318 31.4802L85.9428 15.9902V46.9702Z" fill="#CCEBFB"/>
<path d="M59.1318 62.46L85.9428 46.97L59.1318 31.48V62.46Z" fill="#2192D0"/>
<path d="M59.1322 62.46L32.3213 46.97L59.1322 31.48V62.46Z" fill="#94D6F4"/>
<path d="M59.1322 0.5L32.3213 15.99L59.1322 31.48V0.5Z" fill="#94D6F4"/>
<path d="M32.3213 15.9902L59.1322 31.4802L32.3213 46.9702V15.9902Z" fill="#94D6F4"/>
<path d="M45.7266 39.2249L59.132 31.4799L45.7266 23.7349V39.2249Z" fill="#045594"/>
<path d="M59.1318 46.97L72.5373 39.225L59.1318 31.48V46.97Z" fill="#0E73BA"/>
<path d="M72.5373 39.2249L59.1318 31.4799L72.5373 23.7349V39.2249Z" fill="#2192D0"/>
<path d="M59.132 46.97L45.7266 39.225L59.132 31.48V46.97Z" fill="#0E73BA"/>
<path d="M59.1318 31.4802L72.5373 23.7352L59.1318 15.9902V31.4802Z" fill="#2192D0"/>
<path d="M59.132 31.4802L45.7266 23.7352L59.132 15.9902V31.4802Z" fill="#045594"/>
<path d="M64.4307 67.8174L91.2416 83.3074L64.4307 98.7974V67.8174Z" fill="#94D6F4"/>
<path d="M91.2412 52.3276L117.999 67.8176L91.2412 83.3076V52.3276Z" fill="#CCEBFB"/>
<path d="M117.999 67.8174L91.2412 83.3074L117.999 98.7974V67.8174Z" fill="#045594"/>
<path d="M91.2416 52.3276L64.4307 67.8176L91.2416 83.3076V52.3276Z" fill="#CCEBFB"/>
<path d="M91.2412 83.3076L117.999 98.7976L91.2412 114.288V83.3076Z" fill="#045594"/>
<path d="M91.2416 83.3076L64.4307 98.7976L91.2416 114.288V83.3076Z" fill="#53C1EE"/>
</g>
<defs>
<clipPath id="clip0_866_19077">
<rect width="118" height="114" fill="white" transform="translate(0 0.5)"/>
</clipPath>
</defs>
</svg>
