<svg width="94" height="115" viewBox="0 0 94 115" fill="none" xmlns="http://www.w3.org/2000/svg">
<g clip-path="url(#clip0_866_19085)">
<path d="M70.7388 17.1509L47.4502 57.5775L93.9502 57.655L70.7388 17.1509Z" fill="#2192D0"/>
<path d="M24.2388 17.1509L0.950195 57.5775H47.4502L24.2388 17.1509Z" fill="#53C1EE"/>
<path d="M24.2383 17.1509H70.7383L47.4497 57.5775L24.2383 17.1509Z" fill="#2192D0"/>
<path d="M47.4507 57.5776L24.1621 98.0043L70.6621 98.0817L47.4507 57.5776Z" fill="#94D6F4"/>
<path d="M47.4502 57.5776L93.9502 57.6551L70.6616 98.0817L47.4502 57.5776Z" fill="#94D6F4"/>
<path d="M0.950195 57.5776H47.4502L24.1616 98.0043L0.950195 57.5776Z" fill="#045594"/>
<path d="M21.154 0.5V11.4973L11.6689 5.99864L21.154 0.5Z" fill="#53C1EE"/>
<path d="M73.9775 114.5V103.503L83.4626 109.002L73.9775 114.5Z" fill="#94D6F4"/>
</g>
<defs>
<clipPath id="clip0_866_19085">
<rect width="93" height="114" fill="white" transform="translate(0.950195 0.5)"/>
</clipPath>
</defs>
</svg>
