<svg width="100" height="96" viewBox="0 0 100 96" fill="none" xmlns="http://www.w3.org/2000/svg">
<g clip-path="url(#clip0_866_19060)">
<path d="M0 63.9564L18.1935 31.9783L36.3871 63.9564H0Z" fill="#94D6F4"/>
<path d="M0 0L18.1935 31.9782L36.3871 0H0Z" fill="#045594"/>
<path d="M18.1934 31.9782L36.3869 0L54.5805 31.9782H18.1934Z" fill="#94D6F4"/>
<path d="M18.1934 31.9783L36.3869 63.9564L54.5805 31.9783H18.1934Z" fill="#53C1EE"/>
<path d="M99.9993 31.9783L81.8058 63.9564L63.6768 31.9783H99.9993Z" fill="#53C1EE"/>
<path d="M99.9993 96.0002L81.8058 63.9565L63.6768 96.0002H99.9993Z" fill="#045594"/>
<path d="M81.806 63.9565L63.6769 96.0002L45.4834 63.9565H81.806Z" fill="#045594"/>
<path d="M81.806 63.9564L63.6769 31.9783L45.4834 63.9564H81.806Z" fill="#94D6F4"/>
</g>
<defs>
<clipPath id="clip0_866_19060">
<rect width="100" height="96" fill="white"/>
</clipPath>
</defs>
</svg>
