<svg width="119" height="103" viewBox="0 0 119 103" fill="none" xmlns="http://www.w3.org/2000/svg">
<g clip-path="url(#clip0_866_19081)">
<path d="M118.95 65.2686L85.9053 83.915L118.95 102.5V65.2686Z" fill="#CCEBFB"/>
<path d="M85.9053 46.6841L118.95 65.2688L85.9053 83.9153V46.6841Z" fill="#94D6F4"/>
<path d="M52.7969 65.2686L85.9053 83.915L52.7969 102.5V65.2686Z" fill="#045594"/>
<path d="M85.9053 46.6841L52.7969 65.2688L85.9053 83.9153V46.6841Z" fill="#2192D0"/>
<path d="M33.9953 30.5688L0.950195 49.1536L33.9953 67.8001V30.5688Z" fill="#53C1EE"/>
<path d="M33.9951 30.5688L67.0402 49.1536L33.9951 67.8001V30.5688Z" fill="#94D6F4"/>
<path d="M0.950195 49.1538L33.9953 67.8003L0.950195 86.385V49.1538Z" fill="#045594"/>
<path d="M58.9375 8.09443L63.4321 0.5L67.9268 8.09443H58.9375Z" fill="#CCEBFB"/>
<path d="M29.501 26.7409L33.9956 19.1465L38.4902 26.7409H29.501Z" fill="#CCEBFB"/>
<path d="M81.4102 41.8063L85.9048 34.2119L90.3994 41.8063H81.4102Z" fill="#CCEBFB"/>
<path d="M29.501 81.2604L33.9956 73.666L38.4902 81.2604H29.501Z" fill="#CCEBFB"/>
</g>
<defs>
<clipPath id="clip0_866_19081">
<rect width="118" height="102" fill="white" transform="translate(0.950195 0.5)"/>
</clipPath>
</defs>
</svg>
