<svg width="101" height="112" viewBox="0 0 101 112" fill="none" xmlns="http://www.w3.org/2000/svg">
<g clip-path="url(#clip0_866_19051)">
<path d="M50.5371 56L100.5 28L50.5371 0V56Z" fill="#CCEBFB"/>
<path d="M100.5 84L50.5371 56L100.5 28V84Z" fill="#CCEBFB"/>
<path d="M50.5371 112L100.5 84L50.5371 56V112Z" fill="#2192D0"/>
<path d="M50.537 112L0.5 84L50.537 56V112Z" fill="#94D6F4"/>
<path d="M50.537 0L0.5 28L50.537 56V0Z" fill="#94D6F4"/>
<path d="M0.5 28L50.537 56L0.5 84V28Z" fill="#94D6F4"/>
<path d="M25.5186 70L50.5371 56L25.5186 42V70Z" fill="#045594"/>
<path d="M50.5371 84L75.5556 70L50.5371 56V84Z" fill="#0E73BA"/>
<path d="M75.5556 70L50.5371 56L75.5556 42V70Z" fill="#2192D0"/>
<path d="M50.5371 84L25.5186 70L50.5371 56V84Z" fill="#0E73BA"/>
<path d="M50.5371 56L75.5556 42L50.5371 28V56Z" fill="#2192D0"/>
<path d="M50.5371 56L25.5186 42L50.5371 28V56Z" fill="#045594"/>
</g>
<defs>
<clipPath id="clip0_866_19051">
<rect width="100" height="112" fill="white" transform="translate(0.5)"/>
</clipPath>
</defs>
</svg>
